<svg width="236" height="210" viewBox="0 0 279 248" fill="none" xmlns="http://www.w3.org/2000/svg">
<rect y="49" width="267.594" height="50" fill="#F4F5FC"/>
<path d="M27.008 71.36C27.008 70.336 27.184 69.32 27.536 68.312C27.904 67.304 28.432 66.392 29.12 65.576C29.808 64.744 30.656 64.088 31.664 63.608C32.672 63.112 33.816 62.864 35.096 62.864C36.6 62.864 37.896 63.216 38.984 63.92C40.072 64.608 40.872 65.496 41.384 66.584L40.064 67.4C39.696 66.648 39.232 66.056 38.672 65.624C38.112 65.176 37.512 64.856 36.872 64.664C36.248 64.472 35.624 64.376 35 64.376C33.976 64.376 33.072 64.584 32.288 65C31.504 65.4 30.84 65.944 30.296 66.632C29.768 67.32 29.368 68.08 29.096 68.912C28.824 69.744 28.688 70.592 28.688 71.456C28.688 72.4 28.848 73.304 29.168 74.168C29.488 75.016 29.936 75.776 30.512 76.448C31.088 77.12 31.76 77.656 32.528 78.056C33.312 78.44 34.16 78.632 35.072 78.632C35.712 78.632 36.368 78.52 37.04 78.296C37.712 78.072 38.336 77.728 38.912 77.264C39.488 76.8 39.96 76.2 40.328 75.464L41.72 76.184C41.352 77.032 40.8 77.752 40.064 78.344C39.344 78.936 38.528 79.384 37.616 79.688C36.72 79.992 35.84 80.144 34.976 80.144C33.808 80.144 32.736 79.896 31.76 79.4C30.784 78.888 29.936 78.216 29.216 77.384C28.512 76.536 27.968 75.592 27.584 74.552C27.2 73.496 27.008 72.432 27.008 71.36ZM43.2451 76.4C43.2451 75.632 43.4691 74.968 43.9171 74.408C44.3651 73.832 44.9811 73.384 45.7651 73.064C46.5651 72.744 47.4851 72.584 48.5251 72.584C49.1331 72.584 49.7651 72.64 50.4211 72.752C51.0771 72.848 51.6611 72.984 52.1731 73.16V72.104C52.1731 71.048 51.8611 70.208 51.2371 69.584C50.6131 68.96 49.7491 68.648 48.6451 68.648C47.9891 68.648 47.3331 68.776 46.6771 69.032C46.0211 69.272 45.3411 69.632 44.6371 70.112L44.0131 68.96C44.8291 68.4 45.6291 67.984 46.4131 67.712C47.1971 67.424 47.9971 67.28 48.8131 67.28C50.3491 67.28 51.5651 67.72 52.4611 68.6C53.3571 69.48 53.8051 70.696 53.8051 72.248V78.032C53.8051 78.464 54.0051 78.688 54.4051 78.704V80C54.0531 80.048 53.8051 80.064 53.6611 80.048C53.2611 80.032 52.9571 79.904 52.7491 79.664C52.5411 79.424 52.4291 79.168 52.4131 78.896L52.3891 77.984C51.8291 78.704 51.1011 79.264 50.2051 79.664C49.3091 80.048 48.3971 80.24 47.4691 80.24C46.6531 80.24 45.9251 80.072 45.2851 79.736C44.6451 79.384 44.1411 78.92 43.7731 78.344C43.4211 77.752 43.2451 77.104 43.2451 76.4ZM51.6211 77.36C51.9891 76.928 52.1731 76.528 52.1731 76.16V74.336C51.0691 73.904 49.9171 73.688 48.7171 73.688C47.5491 73.688 46.6051 73.92 45.8851 74.384C45.1651 74.848 44.8051 75.48 44.8051 76.28C44.8051 76.968 45.0691 77.592 45.5971 78.152C46.1411 78.712 46.8931 78.992 47.8531 78.992C48.6371 78.992 49.3651 78.84 50.0371 78.536C50.7251 78.232 51.2531 77.84 51.6211 77.36ZM63.2375 79.4C63.0455 79.48 62.6935 79.624 62.1815 79.832C61.6695 80.04 61.0775 80.144 60.4055 80.144C59.7015 80.144 59.0855 79.944 58.5575 79.544C58.0295 79.144 57.7655 78.544 57.7655 77.744V68.792H56.0375V67.496H57.7655V63.272H59.3975V67.496H62.2775V68.792H59.3975V77.288C59.4295 77.752 59.5895 78.096 59.8775 78.32C60.1815 78.528 60.5255 78.632 60.9095 78.632C61.3575 78.632 61.7575 78.56 62.1095 78.416C62.4775 78.256 62.7095 78.144 62.8055 78.08L63.2375 79.4ZM70.4656 80.24C69.2656 80.24 68.1936 79.944 67.2496 79.352C66.3056 78.76 65.5616 77.968 65.0176 76.976C64.4736 75.984 64.2016 74.896 64.2016 73.712C64.2016 72.544 64.4656 71.472 64.9936 70.496C65.5376 69.52 66.2816 68.744 67.2256 68.168C68.1696 67.576 69.2416 67.28 70.4416 67.28C71.6736 67.28 72.7536 67.576 73.6816 68.168C74.6096 68.76 75.3296 69.544 75.8416 70.52C76.3696 71.48 76.6336 72.536 76.6336 73.688C76.6336 73.944 76.6256 74.16 76.6096 74.336H65.9056C65.9856 75.232 66.2416 76.032 66.6736 76.736C67.1056 77.424 67.6576 77.976 68.3296 78.392C69.0016 78.792 69.7376 78.992 70.5376 78.992C71.3536 78.992 72.1216 78.784 72.8416 78.368C73.5616 77.952 74.0736 77.408 74.3776 76.736L75.7936 77.12C75.5376 77.728 75.1376 78.272 74.5936 78.752C74.0656 79.216 73.4496 79.584 72.7456 79.856C72.0416 80.112 71.2816 80.24 70.4656 80.24ZM65.8576 73.16H75.0976C75.0336 72.264 74.7856 71.472 74.3536 70.784C73.9216 70.08 73.3696 69.536 72.6976 69.152C72.0256 68.752 71.2816 68.552 70.4656 68.552C69.6496 68.552 68.9056 68.752 68.2336 69.152C67.5616 69.536 67.0096 70.08 66.5776 70.784C66.1616 71.472 65.9216 72.264 65.8576 73.16ZM84.1676 80.168C83.3036 80.168 82.5116 79.992 81.7916 79.64C81.0876 79.288 80.4716 78.816 79.9436 78.224C79.4316 77.616 79.0316 76.928 78.7436 76.16C78.4556 75.392 78.3116 74.6 78.3116 73.784C78.3116 72.616 78.5596 71.544 79.0556 70.568C79.5516 69.576 80.2316 68.784 81.0956 68.192C81.9756 67.584 82.9836 67.28 84.1196 67.28C85.1916 67.28 86.1196 67.552 86.9036 68.096C87.7036 68.64 88.3756 69.312 88.9196 70.112V67.496H90.3836V80.048C90.3836 81.216 90.1036 82.192 89.5436 82.976C88.9836 83.76 88.2396 84.352 87.3116 84.752C86.3836 85.152 85.3676 85.352 84.2636 85.352C82.8236 85.352 81.6636 85.096 80.7836 84.584C79.9196 84.072 79.2076 83.384 78.6476 82.52L79.6556 81.728C80.1516 82.512 80.8076 83.096 81.6236 83.48C82.4556 83.864 83.3356 84.056 84.2636 84.056C85.0796 84.056 85.8236 83.904 86.4956 83.6C87.1836 83.312 87.7276 82.872 88.1276 82.28C88.5436 81.688 88.7516 80.944 88.7516 80.048V77.576C88.2716 78.36 87.6156 78.992 86.7836 79.472C85.9516 79.936 85.0796 80.168 84.1676 80.168ZM84.6236 78.8C85.2796 78.8 85.9036 78.648 86.4956 78.344C87.0876 78.04 87.5836 77.656 87.9836 77.192C88.3996 76.712 88.6556 76.216 88.7516 75.704V71.84C88.5116 71.232 88.1676 70.696 87.7196 70.232C87.2716 69.752 86.7596 69.384 86.1836 69.128C85.6076 68.856 85.0236 68.72 84.4316 68.72C83.5036 68.72 82.7036 68.976 82.0316 69.488C81.3756 69.984 80.8636 70.624 80.4956 71.408C80.1436 72.176 79.9676 72.976 79.9676 73.808C79.9676 74.704 80.1756 75.536 80.5916 76.304C81.0076 77.056 81.5676 77.664 82.2716 78.128C82.9756 78.576 83.7596 78.8 84.6236 78.8ZM99.3155 80.24C98.1155 80.24 97.0435 79.944 96.0995 79.352C95.1715 78.76 94.4435 77.976 93.9155 77C93.3875 76.008 93.1235 74.936 93.1235 73.784C93.1235 72.616 93.3875 71.544 93.9155 70.568C94.4595 69.576 95.1955 68.784 96.1235 68.192C97.0675 67.584 98.1315 67.28 99.3155 67.28C100.516 67.28 101.58 67.584 102.508 68.192C103.452 68.784 104.188 69.576 104.716 70.568C105.26 71.544 105.532 72.616 105.532 73.784C105.532 74.936 105.268 76.008 104.74 77C104.212 77.976 103.476 78.76 102.532 79.352C101.604 79.944 100.532 80.24 99.3155 80.24ZM94.7795 73.808C94.7795 74.736 94.9795 75.584 95.3795 76.352C95.7955 77.104 96.3475 77.704 97.0355 78.152C97.7235 78.584 98.4835 78.8 99.3155 78.8C100.148 78.8 100.908 78.576 101.596 78.128C102.284 77.68 102.836 77.072 103.252 76.304C103.668 75.536 103.876 74.688 103.876 73.76C103.876 72.832 103.668 71.984 103.252 71.216C102.836 70.448 102.284 69.84 101.596 69.392C100.908 68.944 100.148 68.72 99.3155 68.72C98.4995 68.72 97.7475 68.952 97.0595 69.416C96.3715 69.864 95.8195 70.472 95.4035 71.24C94.9875 72.008 94.7795 72.864 94.7795 73.808ZM114.501 68.936C113.413 68.968 112.453 69.272 111.621 69.848C110.805 70.424 110.229 71.216 109.893 72.224V80H108.261V67.496H109.797V70.496C110.229 69.616 110.797 68.904 111.501 68.36C112.221 67.816 112.981 67.512 113.781 67.448C113.941 67.432 114.077 67.424 114.189 67.424C114.301 67.424 114.405 67.432 114.501 67.448V68.936ZM117.395 83.84C117.619 83.856 117.835 83.864 118.043 83.864C118.251 83.88 118.403 83.872 118.499 83.84C118.691 83.824 118.867 83.712 119.027 83.504C119.203 83.312 119.411 82.944 119.651 82.4C119.907 81.872 120.251 81.072 120.683 80L115.235 67.496H116.963L121.547 78.32L125.771 67.496H127.403L120.923 83.624C120.747 84.088 120.451 84.488 120.035 84.824C119.619 85.16 119.067 85.336 118.379 85.352C118.235 85.368 118.083 85.368 117.923 85.352C117.763 85.352 117.587 85.336 117.395 85.304V83.84ZM143.088 78.512V80H134.952V78.512H138.36V68.24C138.184 68.48 137.864 68.752 137.4 69.056C136.936 69.36 136.432 69.624 135.888 69.848C135.344 70.056 134.864 70.16 134.448 70.16V68.576C134.816 68.576 135.216 68.472 135.648 68.264C136.096 68.056 136.512 67.816 136.896 67.544C137.296 67.256 137.632 66.992 137.904 66.752C138.176 66.512 138.328 66.36 138.36 66.296H140.04V78.512H143.088Z" fill="black"/>
<path fill-rule="evenodd" clip-rule="evenodd" d="M5 0C2.23858 0 0 2.23858 0 5V50H267.594V34.1617L278.705 23.5077L267.594 10.7296V5C267.594 2.23858 265.355 0 262.594 0H5Z" fill="#76A0E5"/>
<path d="M27.008 23.36C27.008 22.336 27.184 21.32 27.536 20.312C27.904 19.304 28.432 18.392 29.12 17.576C29.808 16.744 30.656 16.088 31.664 15.608C32.672 15.112 33.816 14.864 35.096 14.864C36.6 14.864 37.896 15.216 38.984 15.92C40.072 16.608 40.872 17.496 41.384 18.584L40.064 19.4C39.696 18.648 39.232 18.056 38.672 17.624C38.112 17.176 37.512 16.856 36.872 16.664C36.248 16.472 35.624 16.376 35 16.376C33.976 16.376 33.072 16.584 32.288 17C31.504 17.4 30.84 17.944 30.296 18.632C29.768 19.32 29.368 20.08 29.096 20.912C28.824 21.744 28.688 22.592 28.688 23.456C28.688 24.4 28.848 25.304 29.168 26.168C29.488 27.016 29.936 27.776 30.512 28.448C31.088 29.12 31.76 29.656 32.528 30.056C33.312 30.44 34.16 30.632 35.072 30.632C35.712 30.632 36.368 30.52 37.04 30.296C37.712 30.072 38.336 29.728 38.912 29.264C39.488 28.8 39.96 28.2 40.328 27.464L41.72 28.184C41.352 29.032 40.8 29.752 40.064 30.344C39.344 30.936 38.528 31.384 37.616 31.688C36.72 31.992 35.84 32.144 34.976 32.144C33.808 32.144 32.736 31.896 31.76 31.4C30.784 30.888 29.936 30.216 29.216 29.384C28.512 28.536 27.968 27.592 27.584 26.552C27.2 25.496 27.008 24.432 27.008 23.36ZM43.2451 28.4C43.2451 27.632 43.4691 26.968 43.9171 26.408C44.3651 25.832 44.9811 25.384 45.7651 25.064C46.5651 24.744 47.4851 24.584 48.5251 24.584C49.1331 24.584 49.7651 24.64 50.4211 24.752C51.0771 24.848 51.6611 24.984 52.1731 25.16V24.104C52.1731 23.048 51.8611 22.208 51.2371 21.584C50.6131 20.96 49.7491 20.648 48.6451 20.648C47.9891 20.648 47.3331 20.776 46.6771 21.032C46.0211 21.272 45.3411 21.632 44.6371 22.112L44.0131 20.96C44.8291 20.4 45.6291 19.984 46.4131 19.712C47.1971 19.424 47.9971 19.28 48.8131 19.28C50.3491 19.28 51.5651 19.72 52.4611 20.6C53.3571 21.48 53.8051 22.696 53.8051 24.248V30.032C53.8051 30.464 54.0051 30.688 54.4051 30.704V32C54.0531 32.048 53.8051 32.064 53.6611 32.048C53.2611 32.032 52.9571 31.904 52.7491 31.664C52.5411 31.424 52.4291 31.168 52.4131 30.896L52.3891 29.984C51.8291 30.704 51.1011 31.264 50.2051 31.664C49.3091 32.048 48.3971 32.24 47.4691 32.24C46.6531 32.24 45.9251 32.072 45.2851 31.736C44.6451 31.384 44.1411 30.92 43.7731 30.344C43.4211 29.752 43.2451 29.104 43.2451 28.4ZM51.6211 29.36C51.9891 28.928 52.1731 28.528 52.1731 28.16V26.336C51.0691 25.904 49.9171 25.688 48.7171 25.688C47.5491 25.688 46.6051 25.92 45.8851 26.384C45.1651 26.848 44.8051 27.48 44.8051 28.28C44.8051 28.968 45.0691 29.592 45.5971 30.152C46.1411 30.712 46.8931 30.992 47.8531 30.992C48.6371 30.992 49.3651 30.84 50.0371 30.536C50.7251 30.232 51.2531 29.84 51.6211 29.36ZM63.2375 31.4C63.0455 31.48 62.6935 31.624 62.1815 31.832C61.6695 32.04 61.0775 32.144 60.4055 32.144C59.7015 32.144 59.0855 31.944 58.5575 31.544C58.0295 31.144 57.7655 30.544 57.7655 29.744V20.792H56.0375V19.496H57.7655V15.272H59.3975V19.496H62.2775V20.792H59.3975V29.288C59.4295 29.752 59.5895 30.096 59.8775 30.32C60.1815 30.528 60.5255 30.632 60.9095 30.632C61.3575 30.632 61.7575 30.56 62.1095 30.416C62.4775 30.256 62.7095 30.144 62.8055 30.08L63.2375 31.4ZM70.4656 32.24C69.2656 32.24 68.1936 31.944 67.2496 31.352C66.3056 30.76 65.5616 29.968 65.0176 28.976C64.4736 27.984 64.2016 26.896 64.2016 25.712C64.2016 24.544 64.4656 23.472 64.9936 22.496C65.5376 21.52 66.2816 20.744 67.2256 20.168C68.1696 19.576 69.2416 19.28 70.4416 19.28C71.6736 19.28 72.7536 19.576 73.6816 20.168C74.6096 20.76 75.3296 21.544 75.8416 22.52C76.3696 23.48 76.6336 24.536 76.6336 25.688C76.6336 25.944 76.6256 26.16 76.6096 26.336H65.9056C65.9856 27.232 66.2416 28.032 66.6736 28.736C67.1056 29.424 67.6576 29.976 68.3296 30.392C69.0016 30.792 69.7376 30.992 70.5376 30.992C71.3536 30.992 72.1216 30.784 72.8416 30.368C73.5616 29.952 74.0736 29.408 74.3776 28.736L75.7936 29.12C75.5376 29.728 75.1376 30.272 74.5936 30.752C74.0656 31.216 73.4496 31.584 72.7456 31.856C72.0416 32.112 71.2816 32.24 70.4656 32.24ZM65.8576 25.16H75.0976C75.0336 24.264 74.7856 23.472 74.3536 22.784C73.9216 22.08 73.3696 21.536 72.6976 21.152C72.0256 20.752 71.2816 20.552 70.4656 20.552C69.6496 20.552 68.9056 20.752 68.2336 21.152C67.5616 21.536 67.0096 22.08 66.5776 22.784C66.1616 23.472 65.9216 24.264 65.8576 25.16ZM84.1676 32.168C83.3036 32.168 82.5116 31.992 81.7916 31.64C81.0876 31.288 80.4716 30.816 79.9436 30.224C79.4316 29.616 79.0316 28.928 78.7436 28.16C78.4556 27.392 78.3116 26.6 78.3116 25.784C78.3116 24.616 78.5596 23.544 79.0556 22.568C79.5516 21.576 80.2316 20.784 81.0956 20.192C81.9756 19.584 82.9836 19.28 84.1196 19.28C85.1916 19.28 86.1196 19.552 86.9036 20.096C87.7036 20.64 88.3756 21.312 88.9196 22.112V19.496H90.3836V32.048C90.3836 33.216 90.1036 34.192 89.5436 34.976C88.9836 35.76 88.2396 36.352 87.3116 36.752C86.3836 37.152 85.3676 37.352 84.2636 37.352C82.8236 37.352 81.6636 37.096 80.7836 36.584C79.9196 36.072 79.2076 35.384 78.6476 34.52L79.6556 33.728C80.1516 34.512 80.8076 35.096 81.6236 35.48C82.4556 35.864 83.3356 36.056 84.2636 36.056C85.0796 36.056 85.8236 35.904 86.4956 35.6C87.1836 35.312 87.7276 34.872 88.1276 34.28C88.5436 33.688 88.7516 32.944 88.7516 32.048V29.576C88.2716 30.36 87.6156 30.992 86.7836 31.472C85.9516 31.936 85.0796 32.168 84.1676 32.168ZM84.6236 30.8C85.2796 30.8 85.9036 30.648 86.4956 30.344C87.0876 30.04 87.5836 29.656 87.9836 29.192C88.3996 28.712 88.6556 28.216 88.7516 27.704V23.84C88.5116 23.232 88.1676 22.696 87.7196 22.232C87.2716 21.752 86.7596 21.384 86.1836 21.128C85.6076 20.856 85.0236 20.72 84.4316 20.72C83.5036 20.72 82.7036 20.976 82.0316 21.488C81.3756 21.984 80.8636 22.624 80.4956 23.408C80.1436 24.176 79.9676 24.976 79.9676 25.808C79.9676 26.704 80.1756 27.536 80.5916 28.304C81.0076 29.056 81.5676 29.664 82.2716 30.128C82.9756 30.576 83.7596 30.8 84.6236 30.8ZM99.3155 32.24C98.1155 32.24 97.0435 31.944 96.0995 31.352C95.1715 30.76 94.4435 29.976 93.9155 29C93.3875 28.008 93.1235 26.936 93.1235 25.784C93.1235 24.616 93.3875 23.544 93.9155 22.568C94.4595 21.576 95.1955 20.784 96.1235 20.192C97.0675 19.584 98.1315 19.28 99.3155 19.28C100.516 19.28 101.58 19.584 102.508 20.192C103.452 20.784 104.188 21.576 104.716 22.568C105.26 23.544 105.532 24.616 105.532 25.784C105.532 26.936 105.268 28.008 104.74 29C104.212 29.976 103.476 30.76 102.532 31.352C101.604 31.944 100.532 32.24 99.3155 32.24ZM94.7795 25.808C94.7795 26.736 94.9795 27.584 95.3795 28.352C95.7955 29.104 96.3475 29.704 97.0355 30.152C97.7235 30.584 98.4835 30.8 99.3155 30.8C100.148 30.8 100.908 30.576 101.596 30.128C102.284 29.68 102.836 29.072 103.252 28.304C103.668 27.536 103.876 26.688 103.876 25.76C103.876 24.832 103.668 23.984 103.252 23.216C102.836 22.448 102.284 21.84 101.596 21.392C100.908 20.944 100.148 20.72 99.3155 20.72C98.4995 20.72 97.7475 20.952 97.0595 21.416C96.3715 21.864 95.8195 22.472 95.4035 23.24C94.9875 24.008 94.7795 24.864 94.7795 25.808ZM114.501 20.936C113.413 20.968 112.453 21.272 111.621 21.848C110.805 22.424 110.229 23.216 109.893 24.224V32H108.261V19.496H109.797V22.496C110.229 21.616 110.797 20.904 111.501 20.36C112.221 19.816 112.981 19.512 113.781 19.448C113.941 19.432 114.077 19.424 114.189 19.424C114.301 19.424 114.405 19.432 114.501 19.448V20.936ZM117.395 35.84C117.619 35.856 117.835 35.864 118.043 35.864C118.251 35.88 118.403 35.872 118.499 35.84C118.691 35.824 118.867 35.712 119.027 35.504C119.203 35.312 119.411 34.944 119.651 34.4C119.907 33.872 120.251 33.072 120.683 32L115.235 19.496H116.963L121.547 30.32L125.771 19.496H127.403L120.923 35.624C120.747 36.088 120.451 36.488 120.035 36.824C119.619 37.16 119.067 37.336 118.379 37.352C118.235 37.368 118.083 37.368 117.923 37.352C117.763 37.352 117.587 37.336 117.395 37.304V35.84ZM143.088 30.512V32H134.952V30.512H138.36V20.24C138.184 20.48 137.864 20.752 137.4 21.056C136.936 21.36 136.432 21.624 135.888 21.848C135.344 22.056 134.864 22.16 134.448 22.16V20.576C134.816 20.576 135.216 20.472 135.648 20.264C136.096 20.056 136.512 19.816 136.896 19.544C137.296 19.256 137.632 18.992 137.904 18.752C138.176 18.512 138.328 18.36 138.36 18.296H140.04V30.512H143.088Z" fill="black"/>
<rect y="98" width="267.594" height="50" fill="#F4F5FC"/>
<line y1="97.5" x2="267.594" y2="97.5" stroke="#1A2263" stroke-opacity="0.2"/>
<path d="M27.008 121.36C27.008 120.336 27.184 119.32 27.536 118.312C27.904 117.304 28.432 116.392 29.12 115.576C29.808 114.744 30.656 114.088 31.664 113.608C32.672 113.112 33.816 112.864 35.096 112.864C36.6 112.864 37.896 113.216 38.984 113.92C40.072 114.608 40.872 115.496 41.384 116.584L40.064 117.4C39.696 116.648 39.232 116.056 38.672 115.624C38.112 115.176 37.512 114.856 36.872 114.664C36.248 114.472 35.624 114.376 35 114.376C33.976 114.376 33.072 114.584 32.288 115C31.504 115.4 30.84 115.944 30.296 116.632C29.768 117.32 29.368 118.08 29.096 118.912C28.824 119.744 28.688 120.592 28.688 121.456C28.688 122.4 28.848 123.304 29.168 124.168C29.488 125.016 29.936 125.776 30.512 126.448C31.088 127.12 31.76 127.656 32.528 128.056C33.312 128.44 34.16 128.632 35.072 128.632C35.712 128.632 36.368 128.52 37.04 128.296C37.712 128.072 38.336 127.728 38.912 127.264C39.488 126.8 39.96 126.2 40.328 125.464L41.72 126.184C41.352 127.032 40.8 127.752 40.064 128.344C39.344 128.936 38.528 129.384 37.616 129.688C36.72 129.992 35.84 130.144 34.976 130.144C33.808 130.144 32.736 129.896 31.76 129.4C30.784 128.888 29.936 128.216 29.216 127.384C28.512 126.536 27.968 125.592 27.584 124.552C27.2 123.496 27.008 122.432 27.008 121.36ZM43.2451 126.4C43.2451 125.632 43.4691 124.968 43.9171 124.408C44.3651 123.832 44.9811 123.384 45.7651 123.064C46.5651 122.744 47.4851 122.584 48.5251 122.584C49.1331 122.584 49.7651 122.64 50.4211 122.752C51.0771 122.848 51.6611 122.984 52.1731 123.16V122.104C52.1731 121.048 51.8611 120.208 51.2371 119.584C50.6131 118.96 49.7491 118.648 48.6451 118.648C47.9891 118.648 47.3331 118.776 46.6771 119.032C46.0211 119.272 45.3411 119.632 44.6371 120.112L44.0131 118.96C44.8291 118.4 45.6291 117.984 46.4131 117.712C47.1971 117.424 47.9971 117.28 48.8131 117.28C50.3491 117.28 51.5651 117.72 52.4611 118.6C53.3571 119.48 53.8051 120.696 53.8051 122.248V128.032C53.8051 128.464 54.0051 128.688 54.4051 128.704V130C54.0531 130.048 53.8051 130.064 53.6611 130.048C53.2611 130.032 52.9571 129.904 52.7491 129.664C52.5411 129.424 52.4291 129.168 52.4131 128.896L52.3891 127.984C51.8291 128.704 51.1011 129.264 50.2051 129.664C49.3091 130.048 48.3971 130.24 47.4691 130.24C46.6531 130.24 45.9251 130.072 45.2851 129.736C44.6451 129.384 44.1411 128.92 43.7731 128.344C43.4211 127.752 43.2451 127.104 43.2451 126.4ZM51.6211 127.36C51.9891 126.928 52.1731 126.528 52.1731 126.16V124.336C51.0691 123.904 49.9171 123.688 48.7171 123.688C47.5491 123.688 46.6051 123.92 45.8851 124.384C45.1651 124.848 44.8051 125.48 44.8051 126.28C44.8051 126.968 45.0691 127.592 45.5971 128.152C46.1411 128.712 46.8931 128.992 47.8531 128.992C48.6371 128.992 49.3651 128.84 50.0371 128.536C50.7251 128.232 51.2531 127.84 51.6211 127.36ZM63.2375 129.4C63.0455 129.48 62.6935 129.624 62.1815 129.832C61.6695 130.04 61.0775 130.144 60.4055 130.144C59.7015 130.144 59.0855 129.944 58.5575 129.544C58.0295 129.144 57.7655 128.544 57.7655 127.744V118.792H56.0375V117.496H57.7655V113.272H59.3975V117.496H62.2775V118.792H59.3975V127.288C59.4295 127.752 59.5895 128.096 59.8775 128.32C60.1815 128.528 60.5255 128.632 60.9095 128.632C61.3575 128.632 61.7575 128.56 62.1095 128.416C62.4775 128.256 62.7095 128.144 62.8055 128.08L63.2375 129.4ZM70.4656 130.24C69.2656 130.24 68.1936 129.944 67.2496 129.352C66.3056 128.76 65.5616 127.968 65.0176 126.976C64.4736 125.984 64.2016 124.896 64.2016 123.712C64.2016 122.544 64.4656 121.472 64.9936 120.496C65.5376 119.52 66.2816 118.744 67.2256 118.168C68.1696 117.576 69.2416 117.28 70.4416 117.28C71.6736 117.28 72.7536 117.576 73.6816 118.168C74.6096 118.76 75.3296 119.544 75.8416 120.52C76.3696 121.48 76.6336 122.536 76.6336 123.688C76.6336 123.944 76.6256 124.16 76.6096 124.336H65.9056C65.9856 125.232 66.2416 126.032 66.6736 126.736C67.1056 127.424 67.6576 127.976 68.3296 128.392C69.0016 128.792 69.7376 128.992 70.5376 128.992C71.3536 128.992 72.1216 128.784 72.8416 128.368C73.5616 127.952 74.0736 127.408 74.3776 126.736L75.7936 127.12C75.5376 127.728 75.1376 128.272 74.5936 128.752C74.0656 129.216 73.4496 129.584 72.7456 129.856C72.0416 130.112 71.2816 130.24 70.4656 130.24ZM65.8576 123.16H75.0976C75.0336 122.264 74.7856 121.472 74.3536 120.784C73.9216 120.08 73.3696 119.536 72.6976 119.152C72.0256 118.752 71.2816 118.552 70.4656 118.552C69.6496 118.552 68.9056 118.752 68.2336 119.152C67.5616 119.536 67.0096 120.08 66.5776 120.784C66.1616 121.472 65.9216 122.264 65.8576 123.16ZM84.1676 130.168C83.3036 130.168 82.5116 129.992 81.7916 129.64C81.0876 129.288 80.4716 128.816 79.9436 128.224C79.4316 127.616 79.0316 126.928 78.7436 126.16C78.4556 125.392 78.3116 124.6 78.3116 123.784C78.3116 122.616 78.5596 121.544 79.0556 120.568C79.5516 119.576 80.2316 118.784 81.0956 118.192C81.9756 117.584 82.9836 117.28 84.1196 117.28C85.1916 117.28 86.1196 117.552 86.9036 118.096C87.7036 118.64 88.3756 119.312 88.9196 120.112V117.496H90.3836V130.048C90.3836 131.216 90.1036 132.192 89.5436 132.976C88.9836 133.76 88.2396 134.352 87.3116 134.752C86.3836 135.152 85.3676 135.352 84.2636 135.352C82.8236 135.352 81.6636 135.096 80.7836 134.584C79.9196 134.072 79.2076 133.384 78.6476 132.52L79.6556 131.728C80.1516 132.512 80.8076 133.096 81.6236 133.48C82.4556 133.864 83.3356 134.056 84.2636 134.056C85.0796 134.056 85.8236 133.904 86.4956 133.6C87.1836 133.312 87.7276 132.872 88.1276 132.28C88.5436 131.688 88.7516 130.944 88.7516 130.048V127.576C88.2716 128.36 87.6156 128.992 86.7836 129.472C85.9516 129.936 85.0796 130.168 84.1676 130.168ZM84.6236 128.8C85.2796 128.8 85.9036 128.648 86.4956 128.344C87.0876 128.04 87.5836 127.656 87.9836 127.192C88.3996 126.712 88.6556 126.216 88.7516 125.704V121.84C88.5116 121.232 88.1676 120.696 87.7196 120.232C87.2716 119.752 86.7596 119.384 86.1836 119.128C85.6076 118.856 85.0236 118.72 84.4316 118.72C83.5036 118.72 82.7036 118.976 82.0316 119.488C81.3756 119.984 80.8636 120.624 80.4956 121.408C80.1436 122.176 79.9676 122.976 79.9676 123.808C79.9676 124.704 80.1756 125.536 80.5916 126.304C81.0076 127.056 81.5676 127.664 82.2716 128.128C82.9756 128.576 83.7596 128.8 84.6236 128.8ZM99.3155 130.24C98.1155 130.24 97.0435 129.944 96.0995 129.352C95.1715 128.76 94.4435 127.976 93.9155 127C93.3875 126.008 93.1235 124.936 93.1235 123.784C93.1235 122.616 93.3875 121.544 93.9155 120.568C94.4595 119.576 95.1955 118.784 96.1235 118.192C97.0675 117.584 98.1315 117.28 99.3155 117.28C100.516 117.28 101.58 117.584 102.508 118.192C103.452 118.784 104.188 119.576 104.716 120.568C105.26 121.544 105.532 122.616 105.532 123.784C105.532 124.936 105.268 126.008 104.74 127C104.212 127.976 103.476 128.76 102.532 129.352C101.604 129.944 100.532 130.24 99.3155 130.24ZM94.7795 123.808C94.7795 124.736 94.9795 125.584 95.3795 126.352C95.7955 127.104 96.3475 127.704 97.0355 128.152C97.7235 128.584 98.4835 128.8 99.3155 128.8C100.148 128.8 100.908 128.576 101.596 128.128C102.284 127.68 102.836 127.072 103.252 126.304C103.668 125.536 103.876 124.688 103.876 123.76C103.876 122.832 103.668 121.984 103.252 121.216C102.836 120.448 102.284 119.84 101.596 119.392C100.908 118.944 100.148 118.72 99.3155 118.72C98.4995 118.72 97.7475 118.952 97.0595 119.416C96.3715 119.864 95.8195 120.472 95.4035 121.24C94.9875 122.008 94.7795 122.864 94.7795 123.808ZM114.501 118.936C113.413 118.968 112.453 119.272 111.621 119.848C110.805 120.424 110.229 121.216 109.893 122.224V130H108.261V117.496H109.797V120.496C110.229 119.616 110.797 118.904 111.501 118.36C112.221 117.816 112.981 117.512 113.781 117.448C113.941 117.432 114.077 117.424 114.189 117.424C114.301 117.424 114.405 117.432 114.501 117.448V118.936ZM117.395 133.84C117.619 133.856 117.835 133.864 118.043 133.864C118.251 133.88 118.403 133.872 118.499 133.84C118.691 133.824 118.867 133.712 119.027 133.504C119.203 133.312 119.411 132.944 119.651 132.4C119.907 131.872 120.251 131.072 120.683 130L115.235 117.496H116.963L121.547 128.32L125.771 117.496H127.403L120.923 133.624C120.747 134.088 120.451 134.488 120.035 134.824C119.619 135.16 119.067 135.336 118.379 135.352C118.235 135.368 118.083 135.368 117.923 135.352C117.763 135.352 117.587 135.336 117.395 135.304V133.84ZM143.088 128.512V130H134.952V128.512H138.36V118.24C138.184 118.48 137.864 118.752 137.4 119.056C136.936 119.36 136.432 119.624 135.888 119.848C135.344 120.056 134.864 120.16 134.448 120.16V118.576C134.816 118.576 135.216 118.472 135.648 118.264C136.096 118.056 136.512 117.816 136.896 117.544C137.296 117.256 137.632 116.992 137.904 116.752C138.176 116.512 138.328 116.36 138.36 116.296H140.04V128.512H143.088Z" fill="black"/>
<rect y="148" width="267.594" height="50" fill="#F4F5FC"/>
<line y1="147.5" x2="267.594" y2="147.5" stroke="#1A2263" stroke-opacity="0.2"/>
<path d="M27.008 170.36C27.008 169.336 27.184 168.32 27.536 167.312C27.904 166.304 28.432 165.392 29.12 164.576C29.808 163.744 30.656 163.088 31.664 162.608C32.672 162.112 33.816 161.864 35.096 161.864C36.6 161.864 37.896 162.216 38.984 162.92C40.072 163.608 40.872 164.496 41.384 165.584L40.064 166.4C39.696 165.648 39.232 165.056 38.672 164.624C38.112 164.176 37.512 163.856 36.872 163.664C36.248 163.472 35.624 163.376 35 163.376C33.976 163.376 33.072 163.584 32.288 164C31.504 164.4 30.84 164.944 30.296 165.632C29.768 166.32 29.368 167.08 29.096 167.912C28.824 168.744 28.688 169.592 28.688 170.456C28.688 171.4 28.848 172.304 29.168 173.168C29.488 174.016 29.936 174.776 30.512 175.448C31.088 176.12 31.76 176.656 32.528 177.056C33.312 177.44 34.16 177.632 35.072 177.632C35.712 177.632 36.368 177.52 37.04 177.296C37.712 177.072 38.336 176.728 38.912 176.264C39.488 175.8 39.96 175.2 40.328 174.464L41.72 175.184C41.352 176.032 40.8 176.752 40.064 177.344C39.344 177.936 38.528 178.384 37.616 178.688C36.72 178.992 35.84 179.144 34.976 179.144C33.808 179.144 32.736 178.896 31.76 178.4C30.784 177.888 29.936 177.216 29.216 176.384C28.512 175.536 27.968 174.592 27.584 173.552C27.2 172.496 27.008 171.432 27.008 170.36ZM43.2451 175.4C43.2451 174.632 43.4691 173.968 43.9171 173.408C44.3651 172.832 44.9811 172.384 45.7651 172.064C46.5651 171.744 47.4851 171.584 48.5251 171.584C49.1331 171.584 49.7651 171.64 50.4211 171.752C51.0771 171.848 51.6611 171.984 52.1731 172.16V171.104C52.1731 170.048 51.8611 169.208 51.2371 168.584C50.6131 167.96 49.7491 167.648 48.6451 167.648C47.9891 167.648 47.3331 167.776 46.6771 168.032C46.0211 168.272 45.3411 168.632 44.6371 169.112L44.0131 167.96C44.8291 167.4 45.6291 166.984 46.4131 166.712C47.1971 166.424 47.9971 166.28 48.8131 166.28C50.3491 166.28 51.5651 166.72 52.4611 167.6C53.3571 168.48 53.8051 169.696 53.8051 171.248V177.032C53.8051 177.464 54.0051 177.688 54.4051 177.704V179C54.0531 179.048 53.8051 179.064 53.6611 179.048C53.2611 179.032 52.9571 178.904 52.7491 178.664C52.5411 178.424 52.4291 178.168 52.4131 177.896L52.3891 176.984C51.8291 177.704 51.1011 178.264 50.2051 178.664C49.3091 179.048 48.3971 179.24 47.4691 179.24C46.6531 179.24 45.9251 179.072 45.2851 178.736C44.6451 178.384 44.1411 177.92 43.7731 177.344C43.4211 176.752 43.2451 176.104 43.2451 175.4ZM51.6211 176.36C51.9891 175.928 52.1731 175.528 52.1731 175.16V173.336C51.0691 172.904 49.9171 172.688 48.7171 172.688C47.5491 172.688 46.6051 172.92 45.8851 173.384C45.1651 173.848 44.8051 174.48 44.8051 175.28C44.8051 175.968 45.0691 176.592 45.5971 177.152C46.1411 177.712 46.8931 177.992 47.8531 177.992C48.6371 177.992 49.3651 177.84 50.0371 177.536C50.7251 177.232 51.2531 176.84 51.6211 176.36ZM63.2375 178.4C63.0455 178.48 62.6935 178.624 62.1815 178.832C61.6695 179.04 61.0775 179.144 60.4055 179.144C59.7015 179.144 59.0855 178.944 58.5575 178.544C58.0295 178.144 57.7655 177.544 57.7655 176.744V167.792H56.0375V166.496H57.7655V162.272H59.3975V166.496H62.2775V167.792H59.3975V176.288C59.4295 176.752 59.5895 177.096 59.8775 177.32C60.1815 177.528 60.5255 177.632 60.9095 177.632C61.3575 177.632 61.7575 177.56 62.1095 177.416C62.4775 177.256 62.7095 177.144 62.8055 177.08L63.2375 178.4ZM70.4656 179.24C69.2656 179.24 68.1936 178.944 67.2496 178.352C66.3056 177.76 65.5616 176.968 65.0176 175.976C64.4736 174.984 64.2016 173.896 64.2016 172.712C64.2016 171.544 64.4656 170.472 64.9936 169.496C65.5376 168.52 66.2816 167.744 67.2256 167.168C68.1696 166.576 69.2416 166.28 70.4416 166.28C71.6736 166.28 72.7536 166.576 73.6816 167.168C74.6096 167.76 75.3296 168.544 75.8416 169.52C76.3696 170.48 76.6336 171.536 76.6336 172.688C76.6336 172.944 76.6256 173.16 76.6096 173.336H65.9056C65.9856 174.232 66.2416 175.032 66.6736 175.736C67.1056 176.424 67.6576 176.976 68.3296 177.392C69.0016 177.792 69.7376 177.992 70.5376 177.992C71.3536 177.992 72.1216 177.784 72.8416 177.368C73.5616 176.952 74.0736 176.408 74.3776 175.736L75.7936 176.12C75.5376 176.728 75.1376 177.272 74.5936 177.752C74.0656 178.216 73.4496 178.584 72.7456 178.856C72.0416 179.112 71.2816 179.24 70.4656 179.24ZM65.8576 172.16H75.0976C75.0336 171.264 74.7856 170.472 74.3536 169.784C73.9216 169.08 73.3696 168.536 72.6976 168.152C72.0256 167.752 71.2816 167.552 70.4656 167.552C69.6496 167.552 68.9056 167.752 68.2336 168.152C67.5616 168.536 67.0096 169.08 66.5776 169.784C66.1616 170.472 65.9216 171.264 65.8576 172.16ZM84.1676 179.168C83.3036 179.168 82.5116 178.992 81.7916 178.64C81.0876 178.288 80.4716 177.816 79.9436 177.224C79.4316 176.616 79.0316 175.928 78.7436 175.16C78.4556 174.392 78.3116 173.6 78.3116 172.784C78.3116 171.616 78.5596 170.544 79.0556 169.568C79.5516 168.576 80.2316 167.784 81.0956 167.192C81.9756 166.584 82.9836 166.28 84.1196 166.28C85.1916 166.28 86.1196 166.552 86.9036 167.096C87.7036 167.64 88.3756 168.312 88.9196 169.112V166.496H90.3836V179.048C90.3836 180.216 90.1036 181.192 89.5436 181.976C88.9836 182.76 88.2396 183.352 87.3116 183.752C86.3836 184.152 85.3676 184.352 84.2636 184.352C82.8236 184.352 81.6636 184.096 80.7836 183.584C79.9196 183.072 79.2076 182.384 78.6476 181.52L79.6556 180.728C80.1516 181.512 80.8076 182.096 81.6236 182.48C82.4556 182.864 83.3356 183.056 84.2636 183.056C85.0796 183.056 85.8236 182.904 86.4956 182.6C87.1836 182.312 87.7276 181.872 88.1276 181.28C88.5436 180.688 88.7516 179.944 88.7516 179.048V176.576C88.2716 177.36 87.6156 177.992 86.7836 178.472C85.9516 178.936 85.0796 179.168 84.1676 179.168ZM84.6236 177.8C85.2796 177.8 85.9036 177.648 86.4956 177.344C87.0876 177.04 87.5836 176.656 87.9836 176.192C88.3996 175.712 88.6556 175.216 88.7516 174.704V170.84C88.5116 170.232 88.1676 169.696 87.7196 169.232C87.2716 168.752 86.7596 168.384 86.1836 168.128C85.6076 167.856 85.0236 167.72 84.4316 167.72C83.5036 167.72 82.7036 167.976 82.0316 168.488C81.3756 168.984 80.8636 169.624 80.4956 170.408C80.1436 171.176 79.9676 171.976 79.9676 172.808C79.9676 173.704 80.1756 174.536 80.5916 175.304C81.0076 176.056 81.5676 176.664 82.2716 177.128C82.9756 177.576 83.7596 177.8 84.6236 177.8ZM99.3155 179.24C98.1155 179.24 97.0435 178.944 96.0995 178.352C95.1715 177.76 94.4435 176.976 93.9155 176C93.3875 175.008 93.1235 173.936 93.1235 172.784C93.1235 171.616 93.3875 170.544 93.9155 169.568C94.4595 168.576 95.1955 167.784 96.1235 167.192C97.0675 166.584 98.1315 166.28 99.3155 166.28C100.516 166.28 101.58 166.584 102.508 167.192C103.452 167.784 104.188 168.576 104.716 169.568C105.26 170.544 105.532 171.616 105.532 172.784C105.532 173.936 105.268 175.008 104.74 176C104.212 176.976 103.476 177.76 102.532 178.352C101.604 178.944 100.532 179.24 99.3155 179.24ZM94.7795 172.808C94.7795 173.736 94.9795 174.584 95.3795 175.352C95.7955 176.104 96.3475 176.704 97.0355 177.152C97.7235 177.584 98.4835 177.8 99.3155 177.8C100.148 177.8 100.908 177.576 101.596 177.128C102.284 176.68 102.836 176.072 103.252 175.304C103.668 174.536 103.876 173.688 103.876 172.76C103.876 171.832 103.668 170.984 103.252 170.216C102.836 169.448 102.284 168.84 101.596 168.392C100.908 167.944 100.148 167.72 99.3155 167.72C98.4995 167.72 97.7475 167.952 97.0595 168.416C96.3715 168.864 95.8195 169.472 95.4035 170.24C94.9875 171.008 94.7795 171.864 94.7795 172.808ZM114.501 167.936C113.413 167.968 112.453 168.272 111.621 168.848C110.805 169.424 110.229 170.216 109.893 171.224V179H108.261V166.496H109.797V169.496C110.229 168.616 110.797 167.904 111.501 167.36C112.221 166.816 112.981 166.512 113.781 166.448C113.941 166.432 114.077 166.424 114.189 166.424C114.301 166.424 114.405 166.432 114.501 166.448V167.936ZM117.395 182.84C117.619 182.856 117.835 182.864 118.043 182.864C118.251 182.88 118.403 182.872 118.499 182.84C118.691 182.824 118.867 182.712 119.027 182.504C119.203 182.312 119.411 181.944 119.651 181.4C119.907 180.872 120.251 180.072 120.683 179L115.235 166.496H116.963L121.547 177.32L125.771 166.496H127.403L120.923 182.624C120.747 183.088 120.451 183.488 120.035 183.824C119.619 184.16 119.067 184.336 118.379 184.352C118.235 184.368 118.083 184.368 117.923 184.352C117.763 184.352 117.587 184.336 117.395 184.304V182.84ZM143.088 177.512V179H134.952V177.512H138.36V167.24C138.184 167.48 137.864 167.752 137.4 168.056C136.936 168.36 136.432 168.624 135.888 168.848C135.344 169.056 134.864 169.16 134.448 169.16V167.576C134.816 167.576 135.216 167.472 135.648 167.264C136.096 167.056 136.512 166.816 136.896 166.544C137.296 166.256 137.632 165.992 137.904 165.752C138.176 165.512 138.328 165.36 138.36 165.296H140.04V177.512H143.088Z" fill="black"/>
<path d="M0 198H267.594V238C267.594 243.523 263.116 248 257.594 248H10C4.47715 248 0 243.523 0 238V198Z" fill="#F4F5FC"/>
<line y1="198.5" x2="267.594" y2="198.5" stroke="#1A2263" stroke-opacity="0.2"/>
<path d="M27.008 219.36C27.008 218.336 27.184 217.32 27.536 216.312C27.904 215.304 28.432 214.392 29.12 213.576C29.808 212.744 30.656 212.088 31.664 211.608C32.672 211.112 33.816 210.864 35.096 210.864C36.6 210.864 37.896 211.216 38.984 211.92C40.072 212.608 40.872 213.496 41.384 214.584L40.064 215.4C39.696 214.648 39.232 214.056 38.672 213.624C38.112 213.176 37.512 212.856 36.872 212.664C36.248 212.472 35.624 212.376 35 212.376C33.976 212.376 33.072 212.584 32.288 213C31.504 213.4 30.84 213.944 30.296 214.632C29.768 215.32 29.368 216.08 29.096 216.912C28.824 217.744 28.688 218.592 28.688 219.456C28.688 220.4 28.848 221.304 29.168 222.168C29.488 223.016 29.936 223.776 30.512 224.448C31.088 225.12 31.76 225.656 32.528 226.056C33.312 226.44 34.16 226.632 35.072 226.632C35.712 226.632 36.368 226.52 37.04 226.296C37.712 226.072 38.336 225.728 38.912 225.264C39.488 224.8 39.96 224.2 40.328 223.464L41.72 224.184C41.352 225.032 40.8 225.752 40.064 226.344C39.344 226.936 38.528 227.384 37.616 227.688C36.72 227.992 35.84 228.144 34.976 228.144C33.808 228.144 32.736 227.896 31.76 227.4C30.784 226.888 29.936 226.216 29.216 225.384C28.512 224.536 27.968 223.592 27.584 222.552C27.2 221.496 27.008 220.432 27.008 219.36ZM43.2451 224.4C43.2451 223.632 43.4691 222.968 43.9171 222.408C44.3651 221.832 44.9811 221.384 45.7651 221.064C46.5651 220.744 47.4851 220.584 48.5251 220.584C49.1331 220.584 49.7651 220.64 50.4211 220.752C51.0771 220.848 51.6611 220.984 52.1731 221.16V220.104C52.1731 219.048 51.8611 218.208 51.2371 217.584C50.6131 216.96 49.7491 216.648 48.6451 216.648C47.9891 216.648 47.3331 216.776 46.6771 217.032C46.0211 217.272 45.3411 217.632 44.6371 218.112L44.0131 216.96C44.8291 216.4 45.6291 215.984 46.4131 215.712C47.1971 215.424 47.9971 215.28 48.8131 215.28C50.3491 215.28 51.5651 215.72 52.4611 216.6C53.3571 217.48 53.8051 218.696 53.8051 220.248V226.032C53.8051 226.464 54.0051 226.688 54.4051 226.704V228C54.0531 228.048 53.8051 228.064 53.6611 228.048C53.2611 228.032 52.9571 227.904 52.7491 227.664C52.5411 227.424 52.4291 227.168 52.4131 226.896L52.3891 225.984C51.8291 226.704 51.1011 227.264 50.2051 227.664C49.3091 228.048 48.3971 228.24 47.4691 228.24C46.6531 228.24 45.9251 228.072 45.2851 227.736C44.6451 227.384 44.1411 226.92 43.7731 226.344C43.4211 225.752 43.2451 225.104 43.2451 224.4ZM51.6211 225.36C51.9891 224.928 52.1731 224.528 52.1731 224.16V222.336C51.0691 221.904 49.9171 221.688 48.7171 221.688C47.5491 221.688 46.6051 221.92 45.8851 222.384C45.1651 222.848 44.8051 223.48 44.8051 224.28C44.8051 224.968 45.0691 225.592 45.5971 226.152C46.1411 226.712 46.8931 226.992 47.8531 226.992C48.6371 226.992 49.3651 226.84 50.0371 226.536C50.7251 226.232 51.2531 225.84 51.6211 225.36ZM63.2375 227.4C63.0455 227.48 62.6935 227.624 62.1815 227.832C61.6695 228.04 61.0775 228.144 60.4055 228.144C59.7015 228.144 59.0855 227.944 58.5575 227.544C58.0295 227.144 57.7655 226.544 57.7655 225.744V216.792H56.0375V215.496H57.7655V211.272H59.3975V215.496H62.2775V216.792H59.3975V225.288C59.4295 225.752 59.5895 226.096 59.8775 226.32C60.1815 226.528 60.5255 226.632 60.9095 226.632C61.3575 226.632 61.7575 226.56 62.1095 226.416C62.4775 226.256 62.7095 226.144 62.8055 226.08L63.2375 227.4ZM70.4656 228.24C69.2656 228.24 68.1936 227.944 67.2496 227.352C66.3056 226.76 65.5616 225.968 65.0176 224.976C64.4736 223.984 64.2016 222.896 64.2016 221.712C64.2016 220.544 64.4656 219.472 64.9936 218.496C65.5376 217.52 66.2816 216.744 67.2256 216.168C68.1696 215.576 69.2416 215.28 70.4416 215.28C71.6736 215.28 72.7536 215.576 73.6816 216.168C74.6096 216.76 75.3296 217.544 75.8416 218.52C76.3696 219.48 76.6336 220.536 76.6336 221.688C76.6336 221.944 76.6256 222.16 76.6096 222.336H65.9056C65.9856 223.232 66.2416 224.032 66.6736 224.736C67.1056 225.424 67.6576 225.976 68.3296 226.392C69.0016 226.792 69.7376 226.992 70.5376 226.992C71.3536 226.992 72.1216 226.784 72.8416 226.368C73.5616 225.952 74.0736 225.408 74.3776 224.736L75.7936 225.12C75.5376 225.728 75.1376 226.272 74.5936 226.752C74.0656 227.216 73.4496 227.584 72.7456 227.856C72.0416 228.112 71.2816 228.24 70.4656 228.24ZM65.8576 221.16H75.0976C75.0336 220.264 74.7856 219.472 74.3536 218.784C73.9216 218.08 73.3696 217.536 72.6976 217.152C72.0256 216.752 71.2816 216.552 70.4656 216.552C69.6496 216.552 68.9056 216.752 68.2336 217.152C67.5616 217.536 67.0096 218.08 66.5776 218.784C66.1616 219.472 65.9216 220.264 65.8576 221.16ZM84.1676 228.168C83.3036 228.168 82.5116 227.992 81.7916 227.64C81.0876 227.288 80.4716 226.816 79.9436 226.224C79.4316 225.616 79.0316 224.928 78.7436 224.16C78.4556 223.392 78.3116 222.6 78.3116 221.784C78.3116 220.616 78.5596 219.544 79.0556 218.568C79.5516 217.576 80.2316 216.784 81.0956 216.192C81.9756 215.584 82.9836 215.28 84.1196 215.28C85.1916 215.28 86.1196 215.552 86.9036 216.096C87.7036 216.64 88.3756 217.312 88.9196 218.112V215.496H90.3836V228.048C90.3836 229.216 90.1036 230.192 89.5436 230.976C88.9836 231.76 88.2396 232.352 87.3116 232.752C86.3836 233.152 85.3676 233.352 84.2636 233.352C82.8236 233.352 81.6636 233.096 80.7836 232.584C79.9196 232.072 79.2076 231.384 78.6476 230.52L79.6556 229.728C80.1516 230.512 80.8076 231.096 81.6236 231.48C82.4556 231.864 83.3356 232.056 84.2636 232.056C85.0796 232.056 85.8236 231.904 86.4956 231.6C87.1836 231.312 87.7276 230.872 88.1276 230.28C88.5436 229.688 88.7516 228.944 88.7516 228.048V225.576C88.2716 226.36 87.6156 226.992 86.7836 227.472C85.9516 227.936 85.0796 228.168 84.1676 228.168ZM84.6236 226.8C85.2796 226.8 85.9036 226.648 86.4956 226.344C87.0876 226.04 87.5836 225.656 87.9836 225.192C88.3996 224.712 88.6556 224.216 88.7516 223.704V219.84C88.5116 219.232 88.1676 218.696 87.7196 218.232C87.2716 217.752 86.7596 217.384 86.1836 217.128C85.6076 216.856 85.0236 216.72 84.4316 216.72C83.5036 216.72 82.7036 216.976 82.0316 217.488C81.3756 217.984 80.8636 218.624 80.4956 219.408C80.1436 220.176 79.9676 220.976 79.9676 221.808C79.9676 222.704 80.1756 223.536 80.5916 224.304C81.0076 225.056 81.5676 225.664 82.2716 226.128C82.9756 226.576 83.7596 226.8 84.6236 226.8ZM99.3155 228.24C98.1155 228.24 97.0435 227.944 96.0995 227.352C95.1715 226.76 94.4435 225.976 93.9155 225C93.3875 224.008 93.1235 222.936 93.1235 221.784C93.1235 220.616 93.3875 219.544 93.9155 218.568C94.4595 217.576 95.1955 216.784 96.1235 216.192C97.0675 215.584 98.1315 215.28 99.3155 215.28C100.516 215.28 101.58 215.584 102.508 216.192C103.452 216.784 104.188 217.576 104.716 218.568C105.26 219.544 105.532 220.616 105.532 221.784C105.532 222.936 105.268 224.008 104.74 225C104.212 225.976 103.476 226.76 102.532 227.352C101.604 227.944 100.532 228.24 99.3155 228.24ZM94.7795 221.808C94.7795 222.736 94.9795 223.584 95.3795 224.352C95.7955 225.104 96.3475 225.704 97.0355 226.152C97.7235 226.584 98.4835 226.8 99.3155 226.8C100.148 226.8 100.908 226.576 101.596 226.128C102.284 225.68 102.836 225.072 103.252 224.304C103.668 223.536 103.876 222.688 103.876 221.76C103.876 220.832 103.668 219.984 103.252 219.216C102.836 218.448 102.284 217.84 101.596 217.392C100.908 216.944 100.148 216.72 99.3155 216.72C98.4995 216.72 97.7475 216.952 97.0595 217.416C96.3715 217.864 95.8195 218.472 95.4035 219.24C94.9875 220.008 94.7795 220.864 94.7795 221.808ZM114.501 216.936C113.413 216.968 112.453 217.272 111.621 217.848C110.805 218.424 110.229 219.216 109.893 220.224V228H108.261V215.496H109.797V218.496C110.229 217.616 110.797 216.904 111.501 216.36C112.221 215.816 112.981 215.512 113.781 215.448C113.941 215.432 114.077 215.424 114.189 215.424C114.301 215.424 114.405 215.432 114.501 215.448V216.936ZM117.395 231.84C117.619 231.856 117.835 231.864 118.043 231.864C118.251 231.88 118.403 231.872 118.499 231.84C118.691 231.824 118.867 231.712 119.027 231.504C119.203 231.312 119.411 230.944 119.651 230.4C119.907 229.872 120.251 229.072 120.683 228L115.235 215.496H116.963L121.547 226.32L125.771 215.496H127.403L120.923 231.624C120.747 232.088 120.451 232.488 120.035 232.824C119.619 233.16 119.067 233.336 118.379 233.352C118.235 233.368 118.083 233.368 117.923 233.352C117.763 233.352 117.587 233.336 117.395 233.304V231.84ZM143.088 226.512V228H134.952V226.512H138.36V216.24C138.184 216.48 137.864 216.752 137.4 217.056C136.936 217.36 136.432 217.624 135.888 217.848C135.344 218.056 134.864 218.16 134.448 218.16V216.576C134.816 216.576 135.216 216.472 135.648 216.264C136.096 216.056 136.512 215.816 136.896 215.544C137.296 215.256 137.632 214.992 137.904 214.752C138.176 214.512 138.328 214.36 138.36 214.296H140.04V226.512H143.088Z" fill="black"/>
</svg>
