<svg width="127" height="20" viewBox="0 0 127 20" fill="none" xmlns="http://www.w3.org/2000/svg">
<path d="M0.7 15V0.799999H5.62C7.14 0.799999 8.40667 1.12 9.42 1.76C10.4467 2.38667 11.2133 3.24 11.72 4.32C12.2267 5.38667 12.48 6.57333 12.48 7.88C12.48 9.32 12.2 10.5733 11.64 11.64C11.08 12.7067 10.2867 13.5333 9.26 14.12C8.23333 14.7067 7.02 15 5.62 15H0.7ZM10.66 7.88C10.66 6.81333 10.46 5.86667 10.06 5.04C9.67333 4.21333 9.10667 3.56667 8.36 3.1C7.61333 2.63333 6.7 2.4 5.62 2.4H2.5V13.4H5.62C6.71333 13.4 7.63333 13.16 8.38 12.68C9.12667 12.1867 9.69333 11.5267 10.08 10.7C10.4667 9.86 10.66 8.92 10.66 7.88ZM19.3564 15.2C18.3164 15.2 17.3964 14.9533 16.5964 14.46C15.7964 13.9667 15.1697 13.3067 14.7164 12.48C14.2631 11.6533 14.0364 10.7533 14.0364 9.78C14.0364 8.79333 14.2631 7.89333 14.7164 7.08C15.1697 6.26667 15.7964 5.61333 16.5964 5.12C17.4097 4.62667 18.3364 4.38 19.3764 4.38C20.4297 4.38 21.3431 4.63333 22.1164 5.14C22.9031 5.63333 23.5097 6.28667 23.9364 7.1C24.3764 7.9 24.5964 8.76667 24.5964 9.7C24.5964 9.99333 24.5831 10.22 24.5564 10.38H15.8964C15.9497 11.06 16.1364 11.6667 16.4564 12.2C16.7897 12.72 17.2164 13.1333 17.7364 13.44C18.2564 13.7333 18.8164 13.88 19.4164 13.88C20.0564 13.88 20.6564 13.72 21.2164 13.4C21.7897 13.08 22.1831 12.66 22.3964 12.14L23.9164 12.56C23.5831 13.3333 23.0031 13.9667 22.1764 14.46C21.3497 14.9533 20.4097 15.2 19.3564 15.2ZM15.8364 9.16H22.9564C22.9031 8.48 22.7097 7.88 22.3764 7.36C22.0431 6.84 21.6164 6.43333 21.0964 6.14C20.5764 5.84667 20.0031 5.7 19.3764 5.7C18.7631 5.7 18.1964 5.84667 17.6764 6.14C17.1564 6.43333 16.7297 6.84 16.3964 7.36C16.0764 7.88 15.8897 8.48 15.8364 9.16ZM26.5928 0.4H28.3528V12.3C28.3528 12.8733 28.4328 13.2267 28.5928 13.36C28.7528 13.4933 28.9461 13.56 29.1728 13.56C29.4528 13.56 29.7195 13.5333 29.9728 13.48C30.2261 13.4133 30.4395 13.3467 30.6128 13.28L30.8928 14.72C30.5995 14.84 30.2528 14.94 29.8528 15.02C29.4528 15.1 29.0995 15.14 28.7928 15.14C28.1128 15.14 27.5728 14.9467 27.1728 14.56C26.7861 14.1733 26.5928 13.6333 26.5928 12.94V0.4ZM32.2755 2.6V0.4H34.0355V2.6H32.2755ZM32.2755 15V4.56H34.0355V15H32.2755ZM39.8848 15L35.7848 4.56H37.6248L40.9048 13.32L44.1848 4.56H45.9048L41.8048 15H39.8848ZM51.9345 15.2C50.8945 15.2 49.9745 14.9533 49.1745 14.46C48.3745 13.9667 47.7479 13.3067 47.2945 12.48C46.8412 11.6533 46.6145 10.7533 46.6145 9.78C46.6145 8.79333 46.8412 7.89333 47.2945 7.08C47.7479 6.26667 48.3745 5.61333 49.1745 5.12C49.9879 4.62667 50.9145 4.38 51.9545 4.38C53.0079 4.38 53.9212 4.63333 54.6945 5.14C55.4812 5.63333 56.0879 6.28667 56.5145 7.1C56.9545 7.9 57.1745 8.76667 57.1745 9.7C57.1745 9.99333 57.1612 10.22 57.1345 10.38H48.4745C48.5279 11.06 48.7145 11.6667 49.0345 12.2C49.3679 12.72 49.7945 13.1333 50.3145 13.44C50.8345 13.7333 51.3945 13.88 51.9945 13.88C52.6345 13.88 53.2345 13.72 53.7945 13.4C54.3679 13.08 54.7612 12.66 54.9745 12.14L56.4945 12.56C56.1612 13.3333 55.5812 13.9667 54.7545 14.46C53.9279 14.9533 52.9879 15.2 51.9345 15.2ZM48.4145 9.16H55.5345C55.4812 8.48 55.2879 7.88 54.9545 7.36C54.6212 6.84 54.1945 6.43333 53.6745 6.14C53.1545 5.84667 52.5812 5.7 51.9545 5.7C51.3412 5.7 50.7745 5.84667 50.2545 6.14C49.7345 6.43333 49.3079 6.84 48.9745 7.36C48.6545 7.88 48.4679 8.48 48.4145 9.16ZM64.6509 6.1C63.7709 6.11333 62.9909 6.34 62.3109 6.78C61.6443 7.20667 61.1709 7.8 60.8909 8.56V15H59.1309V4.56H60.7709V6.98C61.1309 6.26 61.6043 5.68 62.1909 5.24C62.7909 4.78667 63.4176 4.53333 64.0709 4.48C64.2043 4.48 64.3176 4.48 64.4109 4.48C64.5043 4.48 64.5843 4.48667 64.6509 4.5V6.1ZM66.8766 17.84C67.0499 17.8533 67.2232 17.8667 67.3966 17.88C67.5699 17.9067 67.7032 17.92 67.7966 17.92C68.0099 17.92 68.1966 17.8467 68.3566 17.7C68.5166 17.5533 68.6899 17.2667 68.8766 16.84C69.0766 16.4267 69.3299 15.8133 69.6366 15L65.2166 4.56H67.0766L70.5966 13.22L73.7766 4.56H75.5166L70.4366 17.74C70.2632 18.2067 69.9499 18.6133 69.4966 18.96C69.0566 19.32 68.4632 19.5 67.7166 19.5C67.5966 19.5 67.4699 19.4933 67.3366 19.48C67.2166 19.4667 67.0632 19.44 66.8766 19.4V17.84ZM91.7213 2.4H86.8213V15H85.0213V2.4H80.1213V0.799999H91.7213V2.4ZM93.4864 2.6V0.4H95.2464V2.6H93.4864ZM93.4864 15V4.56H95.2464V15H93.4864ZM113.836 15H112.076V9.16C112.076 8.06667 111.896 7.26 111.536 6.74C111.189 6.22 110.669 5.96 109.976 5.96C109.269 5.96 108.629 6.22 108.056 6.74C107.482 7.24667 107.076 7.90667 106.836 8.72V15H105.076V9.16C105.076 8.05333 104.902 7.24667 104.556 6.74C104.209 6.22 103.689 5.96 102.996 5.96C102.302 5.96 101.662 6.21333 101.076 6.72C100.502 7.21333 100.096 7.87333 99.8558 8.7V15H98.0958V4.56H99.6958V6.8C100.122 6.02667 100.676 5.43333 101.356 5.02C102.036 4.59333 102.802 4.38 103.656 4.38C104.522 4.38 105.216 4.62 105.736 5.1C106.256 5.56667 106.576 6.17333 106.696 6.92C107.629 5.22667 108.956 4.38 110.676 4.38C111.476 4.38 112.102 4.57333 112.556 4.96C113.022 5.33333 113.349 5.85333 113.536 6.52C113.736 7.17333 113.836 7.92 113.836 8.76V15ZM121.192 15.2C120.152 15.2 119.232 14.9533 118.432 14.46C117.632 13.9667 117.006 13.3067 116.552 12.48C116.099 11.6533 115.872 10.7533 115.872 9.78C115.872 8.79333 116.099 7.89333 116.552 7.08C117.006 6.26667 117.632 5.61333 118.432 5.12C119.246 4.62667 120.172 4.38 121.212 4.38C122.266 4.38 123.179 4.63333 123.952 5.14C124.739 5.63333 125.346 6.28667 125.772 7.1C126.212 7.9 126.432 8.76667 126.432 9.7C126.432 9.99333 126.419 10.22 126.392 10.38H117.732C117.786 11.06 117.972 11.6667 118.292 12.2C118.626 12.72 119.052 13.1333 119.572 13.44C120.092 13.7333 120.652 13.88 121.252 13.88C121.892 13.88 122.492 13.72 123.052 13.4C123.626 13.08 124.019 12.66 124.232 12.14L125.752 12.56C125.419 13.3333 124.839 13.9667 124.012 14.46C123.186 14.9533 122.246 15.2 121.192 15.2ZM117.672 9.16H124.792C124.739 8.48 124.546 7.88 124.212 7.36C123.879 6.84 123.452 6.43333 122.932 6.14C122.412 5.84667 121.839 5.7 121.212 5.7C120.599 5.7 120.032 5.84667 119.512 6.14C118.992 6.43333 118.566 6.84 118.232 7.36C117.912 7.88 117.726 8.48 117.672 9.16Z" fill="black" fill-opacity="0.8"/>
</svg>
