<svg width="42" height="39" viewBox="0 0 30 29" fill="none" xmlns="http://www.w3.org/2000/svg">
<g clip-path="url(#clip0)">
<path d="M27.8501 0.5H26.0858V28.5694H27.8501C28.8244 28.5694 29.6144 27.8109 29.6144 26.8751V2.19433C29.6144 1.25855 28.8245 0.5 27.8501 0.5Z" fill="#415BA3"/>
<path d="M27.85 26.8751V23.4864L24.3214 12.8404L27.85 2.19433C27.85 1.25855 27.0601 0.5 26.0857 0.5H10.9715C9.99704 0.5 9.20715 1.25855 9.20715 2.19433V3.88867L13.6179 28.5694H26.0857C27.0602 28.5694 27.85 27.8109 27.85 26.8751Z" fill="#6262D1"/>
<path d="M20.7928 25.1808H19.0285V26.8751H20.7928C21.28 26.8751 21.675 26.4958 21.675 26.028C21.675 25.5601 21.28 25.1808 20.7928 25.1808Z" fill="#2D4A7A"/>
<path d="M19.9107 26.028C19.9107 25.5601 19.5157 25.1808 19.0285 25.1808H18.0288C17.5416 25.1808 17.1466 25.5601 17.1466 26.028C17.1466 26.4958 17.5416 26.8751 18.0288 26.8751H19.0285C19.5157 26.8751 19.9107 26.4958 19.9107 26.028Z" fill="#415BA3"/>
<path d="M26.0858 23.4865L22.5571 12.8404L26.0858 2.19434H27.8501V23.4865H26.0858Z" fill="#FFF1A0"/>
<path d="M10.9715 2.19434V3.88867L15.3823 23.4865H26.0858V2.19434H10.9715Z" fill="#FFF9D6"/>
<path d="M13.6179 3.88867H11.8536V28.5695H13.6179C14.5924 28.5695 15.3823 27.8109 15.3823 26.8751V5.583C15.3823 4.64722 14.5924 3.88867 13.6179 3.88867Z" fill="#9587FF"/>
<path d="M13.618 26.8751V5.583C13.618 4.64722 12.8281 3.88867 11.8536 3.88867H2.14993C1.1755 3.88867 0.38562 4.64722 0.38562 5.583V26.8751C0.38562 27.8109 1.1755 28.5695 2.14993 28.5695H11.8536C12.8281 28.5695 13.618 27.8109 13.618 26.8751Z" fill="#9EA4FF"/>
<path d="M7.88391 5.58301V15.749C9.58912 15.749 10.9715 14.4215 10.9715 12.7839V8.54809C10.9715 6.91052 9.58912 5.58301 7.88391 5.58301Z" fill="#415BA3"/>
<path d="M9.20717 12.7839V8.54809C9.20717 6.91052 8.61471 5.58301 7.88393 5.58301C6.17872 5.58301 4.79639 6.91052 4.79639 8.54809V12.7839C4.79639 14.4215 6.17872 15.749 7.88393 15.749C8.61471 15.749 9.20717 14.4215 9.20717 12.7839Z" fill="#6262D1"/>
<path d="M7.88396 9.81884C8.61476 9.81884 9.2072 9.24991 9.2072 8.54809C9.2072 7.84628 8.61476 7.27734 7.88396 7.27734C7.15316 7.27734 6.56073 7.84628 6.56073 8.54809C6.56073 9.24991 7.15316 9.81884 7.88396 9.81884Z" fill="#2D4A7A"/>
<path d="M7.88396 14.0547C8.61476 14.0547 9.2072 13.4857 9.2072 12.7839C9.2072 12.0821 8.61476 11.5132 7.88396 11.5132C7.15316 11.5132 6.56073 12.0821 6.56073 12.7839C6.56073 13.4857 7.15316 14.0547 7.88396 14.0547Z" fill="#2D4A7A"/>
<path d="M7.88393 19.1376C8.37113 19.1376 8.76608 18.7583 8.76608 18.2905C8.76608 17.8226 8.37113 17.4433 7.88393 17.4433C7.39672 17.4433 7.00177 17.8226 7.00177 18.2905C7.00177 18.7583 7.39672 19.1376 7.88393 19.1376Z" fill="#FFF1A0"/>
</g>
<defs>
<clipPath id="clip0">
<rect width="29.2288" height="28.0694" fill="white" transform="translate(0.38562 0.5)"/>
</clipPath>
</defs>
</svg>
