<svg width="191" height="30" viewBox="0 0 226 35" fill="none" xmlns="http://www.w3.org/2000/svg">
<line y1="34.5" x2="226" y2="34.5" stroke="#76A0E5"/>
<path d="M8.74 5.836V12.668H18.568V15.076H8.74V23H5.94V3.4H19.772V5.836H8.74ZM23.048 8.16H25.736V23H23.048V8.16ZM24.392 5.304C23.8693 5.304 23.4307 5.136 23.076 4.8C22.74 4.464 22.572 4.05333 22.572 3.568C22.572 3.08267 22.74 2.672 23.076 2.336C23.4307 1.98133 23.8693 1.804 24.392 1.804C24.9147 1.804 25.344 1.972 25.68 2.308C26.0347 2.62533 26.212 3.02667 26.212 3.512C26.212 4.016 26.0347 4.44533 25.68 4.8C25.344 5.136 24.9147 5.304 24.392 5.304ZM30.8683 2.224H33.5563V23H30.8683V2.224ZM47.3881 22.132C46.9961 22.468 46.5108 22.7293 45.9321 22.916C45.3534 23.084 44.7561 23.168 44.1401 23.168C42.6468 23.168 41.4894 22.7667 40.6681 21.964C39.8468 21.1613 39.4361 20.0133 39.4361 18.52V10.372H36.9161V8.16H39.4361V4.912H42.1241V8.16H46.3801V10.372H42.1241V18.408C42.1241 19.2107 42.3201 19.8267 42.7121 20.256C43.1228 20.6853 43.7014 20.9 44.4481 20.9C45.2694 20.9 45.9694 20.6667 46.5481 20.2L47.3881 22.132ZM63.5577 15.664C63.5577 15.8693 63.539 16.14 63.5017 16.476H51.4617C51.6297 17.7827 52.199 18.8373 53.1697 19.64C54.159 20.424 55.3817 20.816 56.8377 20.816C58.611 20.816 60.039 20.2187 61.1217 19.024L62.6057 20.76C61.9337 21.544 61.0937 22.1413 60.0857 22.552C59.0963 22.9627 57.9857 23.168 56.7537 23.168C55.1857 23.168 53.795 22.8507 52.5817 22.216C51.3683 21.5627 50.4257 20.6573 49.7537 19.5C49.1003 18.3427 48.7737 17.036 48.7737 15.58C48.7737 14.1427 49.091 12.8453 49.7257 11.688C50.379 10.5307 51.2657 9.63467 52.3857 9C53.5243 8.34667 54.803 8.02 56.2217 8.02C57.6403 8.02 58.9003 8.34667 60.0017 9C61.1217 9.63467 61.9897 10.5307 62.6057 11.688C63.2403 12.8453 63.5577 14.1707 63.5577 15.664ZM56.2217 10.288C54.9337 10.288 53.851 10.68 52.9737 11.464C52.115 12.248 51.611 13.2747 51.4617 14.544H60.9817C60.8323 13.2933 60.319 12.276 59.4417 11.492C58.583 10.6893 57.5097 10.288 56.2217 10.288ZM69.8662 10.652C70.3329 9.79333 71.0235 9.14 71.9382 8.692C72.8529 8.244 73.9635 8.02 75.2702 8.02V10.624C75.1209 10.6053 74.9155 10.596 74.6542 10.596C73.1982 10.596 72.0502 11.0347 71.2102 11.912C70.3889 12.7707 69.9782 14.0027 69.9782 15.608V23H67.2902V8.16H69.8662V10.652ZM82.9485 23.168C81.7352 23.168 80.5685 23.0093 79.4485 22.692C78.3285 22.356 77.4512 21.936 76.8165 21.432L77.9365 19.304C78.5899 19.7707 79.3832 20.144 80.3165 20.424C81.2499 20.704 82.1925 20.844 83.1445 20.844C85.4965 20.844 86.6725 20.172 86.6725 18.828C86.6725 18.38 86.5139 18.0253 86.1965 17.764C85.8792 17.5027 85.4779 17.316 84.9925 17.204C84.5259 17.0733 83.8539 16.9333 82.9765 16.784C81.7819 16.5973 80.8019 16.3827 80.0365 16.14C79.2899 15.8973 78.6459 15.4867 78.1045 14.908C77.5632 14.3293 77.2925 13.5173 77.2925 12.472C77.2925 11.128 77.8525 10.0547 78.9725 9.252C80.0925 8.43067 81.5952 8.02 83.4805 8.02C84.4699 8.02 85.4592 8.14133 86.4485 8.384C87.4379 8.62667 88.2499 8.95333 88.8845 9.364L87.7365 11.492C86.5232 10.708 85.0952 10.316 83.4525 10.316C82.3139 10.316 81.4459 10.5027 80.8485 10.876C80.2512 11.2493 79.9525 11.744 79.9525 12.36C79.9525 12.8453 80.1205 13.228 80.4565 13.508C80.7925 13.788 81.2032 13.9933 81.6885 14.124C82.1925 14.2547 82.8925 14.404 83.7885 14.572C84.9832 14.7773 85.9445 15.0013 86.6725 15.244C87.4192 15.468 88.0539 15.86 88.5765 16.42C89.0992 16.98 89.3605 17.764 89.3605 18.772C89.3605 20.116 88.7819 21.1893 87.6245 21.992C86.4859 22.776 84.9272 23.168 82.9485 23.168Z" fill="black"/>
</svg>
