<svg width="12" height="19" viewBox="0 0 12 19" fill="none" xmlns="http://www.w3.org/2000/svg">
<path d="M6 0C2.69166 0 0 2.69975 0 6.01803C0 7.01418 0.248308 8.00186 0.72035 8.87791L5.67189 17.8601C5.73781 17.9799 5.86342 18.0541 6 18.0541C6.13658 18.0541 6.2622 17.9799 6.32811 17.8601L11.2815 8.87494C11.7517 8.00186 12 7.01414 12 6.018C12 2.69975 9.30834 0 6 0ZM6 9.02703C4.34583 9.02703 3.00002 7.67717 3.00002 6.01803C3.00002 4.35889 4.34583 3.00903 6 3.00903C7.65417 3.00903 8.99998 4.35889 8.99998 6.01803C8.99998 7.67717 7.65417 9.02703 6 9.02703Z" fill="#1A2263" fill-opacity="0.8"/>
</svg>
