<svg width="211" height="35" viewBox="0 0 211 35" fill="none" xmlns="http://www.w3.org/2000/svg">
<path d="M22.392 34L15.912 24.64H15.528H8.76V34H0.984V0.399998H15.528C18.504 0.399998 21.08 0.895998 23.256 1.888C25.464 2.88 27.16 4.288 28.344 6.112C29.528 7.936 30.12 10.096 30.12 12.592C30.12 15.088 29.512 17.248 28.296 19.072C27.112 20.864 25.416 22.24 23.208 23.2L30.744 34H22.392ZM22.248 12.592C22.248 10.704 21.64 9.264 20.424 8.272C19.208 7.248 17.432 6.736 15.096 6.736H8.76V18.448H15.096C17.432 18.448 19.208 17.936 20.424 16.912C21.64 15.888 22.248 14.448 22.248 12.592ZM61.0489 21.184C61.0489 21.28 61.0009 21.952 60.9049 23.2H41.3689C41.7209 24.8 42.5529 26.064 43.8649 26.992C45.1769 27.92 46.8089 28.384 48.7609 28.384C50.1049 28.384 51.2889 28.192 52.3129 27.808C53.3689 27.392 54.3449 26.752 55.2409 25.888L59.2249 30.208C56.7929 32.992 53.2409 34.384 48.5689 34.384C45.6569 34.384 43.0809 33.824 40.8409 32.704C38.6009 31.552 36.8729 29.968 35.6569 27.952C34.4409 25.936 33.8329 23.648 33.8329 21.088C33.8329 18.56 34.4249 16.288 35.6089 14.272C36.8249 12.224 38.4729 10.64 40.5529 9.52C42.6649 8.368 45.0169 7.792 47.6089 7.792C50.1369 7.792 52.4249 8.336 54.4729 9.424C56.5209 10.512 58.1209 12.08 59.2729 14.128C60.4569 16.144 61.0489 18.496 61.0489 21.184ZM47.6569 13.456C45.9609 13.456 44.5369 13.936 43.3849 14.896C42.2329 15.856 41.5289 17.168 41.2729 18.832H53.9929C53.7369 17.2 53.0329 15.904 51.8809 14.944C50.7289 13.952 49.3209 13.456 47.6569 13.456ZM81.7301 7.792C84.9301 7.792 87.5061 8.752 89.4581 10.672C91.4421 12.592 92.4341 15.44 92.4341 19.216V34H84.9461V20.368C84.9461 18.32 84.4981 16.8 83.6021 15.808C82.7061 14.784 81.4101 14.272 79.7141 14.272C77.8261 14.272 76.3221 14.864 75.2021 16.048C74.0821 17.2 73.5221 18.928 73.5221 21.232V34H66.0341V8.176H73.1861V11.2C74.1781 10.112 75.4101 9.28 76.8821 8.704C78.3541 8.096 79.9701 7.792 81.7301 7.792ZM115.878 32.752C115.142 33.296 114.23 33.712 113.142 34C112.086 34.256 110.966 34.384 109.782 34.384C106.71 34.384 104.326 33.6 102.63 32.032C100.966 30.464 100.134 28.16 100.134 25.12V14.512H96.1496V8.752H100.134V2.464H107.622V8.752H114.054V14.512H107.622V25.024C107.622 26.112 107.894 26.96 108.438 27.568C109.014 28.144 109.814 28.432 110.838 28.432C112.022 28.432 113.03 28.112 113.862 27.472L115.878 32.752Z" fill="#1A2263"/>
<path d="M142.737 26.8H127.137L124.161 34H116.193L131.169 0.399998H138.849L153.873 34H145.713L142.737 26.8ZM140.289 20.896L134.961 8.032L129.633 20.896H140.289ZM157.359 0.399998H165.135V27.664H181.983V34H157.359V0.399998ZM186.328 0.399998H194.104V27.664H210.952V34H186.328V0.399998Z" fill="#FF0000"/>
</svg>
