<svg width="48" height="23" viewBox="0 0 54 19" fill="none" xmlns="http://www.w3.org/2000/svg">
<path d="M0.04 18V0.959999H7.144C7.896 0.959999 8.584 1.12 9.208 1.44C9.832 1.744 10.376 2.16 10.84 2.688C11.304 3.2 11.664 3.784 11.92 4.44C12.176 5.08 12.304 5.736 12.304 6.408C12.304 7.336 12.096 8.224 11.68 9.072C11.264 9.904 10.68 10.584 9.928 11.112C9.176 11.624 8.296 11.88 7.288 11.88H2.2V18H0.04ZM2.2 9.96H7.168C7.76 9.96 8.272 9.8 8.704 9.48C9.152 9.16 9.496 8.728 9.736 8.184C9.992 7.64 10.12 7.048 10.12 6.408C10.12 5.736 9.976 5.136 9.688 4.608C9.4 4.064 9.024 3.64 8.56 3.336C8.096 3.032 7.584 2.88 7.024 2.88H2.2V9.96ZM21.2811 7.32C20.2251 7.336 19.2891 7.608 18.4731 8.136C17.6731 8.648 17.1051 9.36 16.7691 10.272V18H14.6571V5.472H16.6251V8.376C17.0571 7.512 17.6251 6.816 18.3291 6.288C19.0491 5.744 19.8011 5.44 20.5851 5.376C20.7451 5.376 20.8811 5.376 20.9931 5.376C21.1051 5.376 21.2011 5.384 21.2811 5.4V7.32ZM23.3759 3.12V0.48H25.4879V3.12H23.3759ZM23.3759 18V5.472H25.4879V18H23.3759ZM34.4511 18.24C33.2031 18.24 32.0991 17.944 31.1391 17.352C30.1791 16.744 29.4271 15.944 28.8831 14.952C28.3391 13.96 28.0671 12.88 28.0671 11.712C28.0671 10.528 28.3311 9.448 28.8591 8.472C29.3871 7.496 30.1311 6.72 31.0911 6.144C32.0511 5.552 33.1631 5.256 34.4271 5.256C35.6591 5.256 36.7311 5.536 37.6431 6.096C38.5711 6.64 39.2591 7.376 39.7071 8.304L37.6431 8.952C37.3231 8.36 36.8751 7.904 36.2991 7.584C35.7231 7.248 35.0831 7.08 34.3791 7.08C33.6111 7.08 32.9071 7.28 32.2671 7.68C31.6431 8.08 31.1471 8.632 30.7791 9.336C30.4111 10.024 30.2271 10.816 30.2271 11.712C30.2271 12.592 30.4111 13.392 30.7791 14.112C31.1631 14.816 31.6671 15.376 32.2911 15.792C32.9311 16.208 33.6351 16.416 34.4031 16.416C34.8991 16.416 35.3711 16.328 35.8191 16.152C36.2831 15.976 36.6831 15.744 37.0191 15.456C37.3711 15.152 37.6111 14.824 37.7391 14.472L39.8031 15.096C39.4351 16.008 38.7631 16.76 37.7871 17.352C36.8271 17.944 35.7151 18.24 34.4511 18.24ZM47.623 18.24C46.375 18.24 45.271 17.944 44.311 17.352C43.351 16.76 42.599 15.968 42.055 14.976C41.511 13.984 41.239 12.904 41.239 11.736C41.239 10.552 41.511 9.472 42.055 8.496C42.599 7.52 43.351 6.736 44.311 6.144C45.287 5.552 46.399 5.256 47.647 5.256C48.911 5.256 50.007 5.56 50.935 6.168C51.879 6.76 52.607 7.544 53.119 8.52C53.647 9.48 53.911 10.52 53.911 11.64C53.911 11.992 53.895 12.264 53.863 12.456H43.471C43.535 13.272 43.759 14 44.143 14.64C44.543 15.264 45.055 15.76 45.679 16.128C46.303 16.48 46.975 16.656 47.695 16.656C48.463 16.656 49.183 16.464 49.855 16.08C50.543 15.696 51.015 15.192 51.271 14.568L53.095 15.072C52.695 16 51.999 16.76 51.007 17.352C50.015 17.944 48.887 18.24 47.623 18.24ZM43.399 10.992H51.943C51.879 10.176 51.647 9.456 51.247 8.832C50.847 8.208 50.335 7.72 49.711 7.368C49.087 7.016 48.399 6.84 47.647 6.84C46.911 6.84 46.231 7.016 45.607 7.368C44.983 7.72 44.471 8.208 44.071 8.832C43.687 9.456 43.463 10.176 43.399 10.992Z" fill="black" fill-opacity="0.8"/>
</svg>
