<svg width="269" height="210" viewBox="0 0 298 243" fill="none" xmlns="http://www.w3.org/2000/svg">
<path d="M61.48 57.4C59.848 59.416 57.856 60.952 55.504 62.008C53.2 63.064 50.656 63.592 47.872 63.592C44.128 63.592 40.744 62.776 37.72 61.144C34.696 59.56 31.24 56.728 27.352 52.648C22.792 52.072 18.712 50.608 15.112 48.256C11.56 45.904 8.776 42.88 6.76 39.184C4.792 35.44 3.808 31.312 3.808 26.8C3.808 21.856 4.984 17.416 7.336 13.48C9.736 9.496 13.024 6.376 17.2 4.12C21.424 1.864 26.152 0.735999 31.384 0.735999C36.616 0.735999 41.32 1.864 45.496 4.12C49.672 6.376 52.96 9.496 55.36 13.48C57.76 17.416 58.96 21.856 58.96 26.8C58.96 32.656 57.304 37.792 53.992 42.208C50.728 46.624 46.384 49.696 40.96 51.424C42.16 52.672 43.312 53.56 44.416 54.088C45.568 54.664 46.792 54.952 48.088 54.952C51.208 54.952 53.944 53.704 56.296 51.208L61.48 57.4ZM15.616 26.8C15.616 29.92 16.288 32.704 17.632 35.152C19.024 37.6 20.92 39.52 23.32 40.912C25.72 42.256 28.408 42.928 31.384 42.928C34.36 42.928 37.048 42.256 39.448 40.912C41.848 39.52 43.72 37.6 45.064 35.152C46.456 32.704 47.152 29.92 47.152 26.8C47.152 23.68 46.456 20.896 45.064 18.448C43.72 16 41.848 14.104 39.448 12.76C37.048 11.368 34.36 10.672 31.384 10.672C28.408 10.672 25.72 11.368 23.32 12.76C20.92 14.104 19.024 16 17.632 18.448C16.288 20.896 15.616 23.68 15.616 26.8ZM105.958 13.264V52H95.302V47.392C93.814 49.072 92.038 50.368 89.974 51.28C87.91 52.144 85.678 52.576 83.278 52.576C78.19 52.576 74.158 51.112 71.182 48.184C68.206 45.256 66.718 40.912 66.718 35.152V13.264H77.95V33.496C77.95 39.736 80.566 42.856 85.798 42.856C88.486 42.856 90.646 41.992 92.278 40.264C93.91 38.488 94.726 35.872 94.726 32.416V13.264H105.958ZM134.796 52.576C130.716 52.576 127.044 51.736 123.78 50.056C120.564 48.328 118.044 45.952 116.22 42.928C114.396 39.904 113.484 36.472 113.484 32.632C113.484 28.792 114.396 25.36 116.22 22.336C118.044 19.312 120.564 16.96 123.78 15.28C127.044 13.552 130.716 12.688 134.796 12.688C138.876 12.688 142.524 13.552 145.74 15.28C148.956 16.96 151.476 19.312 153.3 22.336C155.124 25.36 156.036 28.792 156.036 32.632C156.036 36.472 155.124 39.904 153.3 42.928C151.476 45.952 148.956 48.328 145.74 50.056C142.524 51.736 138.876 52.576 134.796 52.576ZM134.796 43.36C137.676 43.36 140.028 42.4 141.852 40.48C143.724 38.512 144.66 35.896 144.66 32.632C144.66 29.368 143.724 26.776 141.852 24.856C140.028 22.888 137.676 21.904 134.796 21.904C131.916 21.904 129.54 22.888 127.668 24.856C125.796 26.776 124.86 29.368 124.86 32.632C124.86 35.896 125.796 38.512 127.668 40.48C129.54 42.4 131.916 43.36 134.796 43.36ZM188.527 50.128C187.423 50.944 186.055 51.568 184.423 52C182.839 52.384 181.159 52.576 179.383 52.576C174.775 52.576 171.199 51.4 168.655 49.048C166.159 46.696 164.911 43.24 164.911 38.68V22.768H158.935V14.128H164.911V4.696H176.143V14.128H185.791V22.768H176.143V38.536C176.143 40.168 176.551 41.44 177.367 42.352C178.231 43.216 179.431 43.648 180.967 43.648C182.743 43.648 184.255 43.168 185.503 42.208L188.527 50.128ZM231.581 32.776C231.581 32.92 231.509 33.928 231.365 35.8H202.061C202.589 38.2 203.837 40.096 205.805 41.488C207.773 42.88 210.221 43.576 213.149 43.576C215.165 43.576 216.941 43.288 218.477 42.712C220.061 42.088 221.525 41.128 222.869 39.832L228.845 46.312C225.197 50.488 219.869 52.576 212.861 52.576C208.493 52.576 204.629 51.736 201.269 50.056C197.909 48.328 195.317 45.952 193.493 42.928C191.669 39.904 190.757 36.472 190.757 32.632C190.757 28.84 191.645 25.432 193.421 22.408C195.245 19.336 197.717 16.96 200.837 15.28C204.005 13.552 207.533 12.688 211.421 12.688C215.213 12.688 218.645 13.504 221.717 15.136C224.789 16.768 227.189 19.12 228.917 22.192C230.693 25.216 231.581 28.744 231.581 32.776ZM211.493 21.184C208.949 21.184 206.813 21.904 205.085 23.344C203.357 24.784 202.301 26.752 201.917 29.248H220.997C220.613 26.8 219.557 24.856 217.829 23.416C216.101 21.928 213.989 21.184 211.493 21.184ZM39.088 228L29.368 213.96H28.792H18.64V228H6.976V177.6H28.792C33.256 177.6 37.12 178.344 40.384 179.832C43.696 181.32 46.24 183.432 48.016 186.168C49.792 188.904 50.68 192.144 50.68 195.888C50.68 199.632 49.768 202.872 47.944 205.608C46.168 208.296 43.624 210.36 40.312 211.8L51.616 228H39.088ZM38.872 195.888C38.872 193.056 37.96 190.896 36.136 189.408C34.312 187.872 31.648 187.104 28.144 187.104H18.64V204.672H28.144C31.648 204.672 34.312 203.904 36.136 202.368C37.96 200.832 38.872 198.672 38.872 195.888ZM97.0733 208.776C97.0733 208.92 97.0013 209.928 96.8573 211.8H67.5533C68.0813 214.2 69.3293 216.096 71.2973 217.488C73.2653 218.88 75.7133 219.576 78.6413 219.576C80.6573 219.576 82.4333 219.288 83.9693 218.712C85.5533 218.088 87.0173 217.128 88.3613 215.832L94.3373 222.312C90.6893 226.488 85.3613 228.576 78.3533 228.576C73.9853 228.576 70.1213 227.736 66.7613 226.056C63.4013 224.328 60.8093 221.952 58.9853 218.928C57.1613 215.904 56.2493 212.472 56.2493 208.632C56.2493 204.84 57.1373 201.432 58.9133 198.408C60.7373 195.336 63.2093 192.96 66.3293 191.28C69.4973 189.552 73.0253 188.688 76.9133 188.688C80.7053 188.688 84.1373 189.504 87.2093 191.136C90.2813 192.768 92.6813 195.12 94.4093 198.192C96.1853 201.216 97.0733 204.744 97.0733 208.776ZM76.9853 197.184C74.4413 197.184 72.3053 197.904 70.5773 199.344C68.8493 200.784 67.7933 202.752 67.4093 205.248H86.4893C86.1053 202.8 85.0493 200.856 83.3213 199.416C81.5933 197.928 79.4813 197.184 76.9853 197.184ZM128.095 188.688C132.895 188.688 136.759 190.128 139.687 193.008C142.663 195.888 144.151 200.16 144.151 205.824V228H132.919V207.552C132.919 204.48 132.247 202.2 130.903 200.712C129.559 199.176 127.615 198.408 125.071 198.408C122.239 198.408 119.983 199.296 118.303 201.072C116.623 202.8 115.783 205.392 115.783 208.848V228H104.551V189.264H115.279V193.8C116.767 192.168 118.615 190.92 120.823 190.056C123.031 189.144 125.455 188.688 128.095 188.688ZM179.316 226.128C178.212 226.944 176.844 227.568 175.212 228C173.628 228.384 171.948 228.576 170.172 228.576C165.564 228.576 161.988 227.4 159.444 225.048C156.948 222.696 155.7 219.24 155.7 214.68V198.768H149.724V190.128H155.7V180.696H166.932V190.128H176.58V198.768H166.932V214.536C166.932 216.168 167.34 217.44 168.156 218.352C169.02 219.216 170.22 219.648 171.756 219.648C173.532 219.648 175.044 219.168 176.292 218.208L179.316 226.128ZM185.622 189.264H196.854V228H185.622V189.264ZM191.238 183.864C189.174 183.864 187.494 183.264 186.198 182.064C184.902 180.864 184.254 179.376 184.254 177.6C184.254 175.824 184.902 174.336 186.198 173.136C187.494 171.936 189.174 171.336 191.238 171.336C193.302 171.336 194.982 171.912 196.278 173.064C197.574 174.216 198.222 175.656 198.222 177.384C198.222 179.256 197.574 180.816 196.278 182.064C194.982 183.264 193.302 183.864 191.238 183.864ZM230.822 188.688C235.622 188.688 239.486 190.128 242.414 193.008C245.39 195.888 246.878 200.16 246.878 205.824V228H235.646V207.552C235.646 204.48 234.974 202.2 233.63 200.712C232.286 199.176 230.342 198.408 227.798 198.408C224.966 198.408 222.71 199.296 221.03 201.072C219.35 202.8 218.51 205.392 218.51 208.848V228H207.278V189.264H218.006V193.8C219.494 192.168 221.342 190.92 223.55 190.056C225.758 189.144 228.182 188.688 230.822 188.688ZM297.441 189.264V221.52C297.441 228.624 295.593 233.904 291.897 237.36C288.201 240.816 282.801 242.544 275.697 242.544C271.953 242.544 268.401 242.088 265.041 241.176C261.681 240.264 258.897 238.944 256.689 237.216L261.153 229.152C262.785 230.496 264.849 231.552 267.345 232.32C269.841 233.136 272.337 233.544 274.833 233.544C278.721 233.544 281.577 232.656 283.401 230.88C285.273 229.152 286.209 226.512 286.209 222.96V221.304C283.281 224.52 279.201 226.128 273.969 226.128C270.417 226.128 267.153 225.36 264.177 223.824C261.249 222.24 258.921 220.032 257.193 217.2C255.465 214.368 254.601 211.104 254.601 207.408C254.601 203.712 255.465 200.448 257.193 197.616C258.921 194.784 261.249 192.6 264.177 191.064C267.153 189.48 270.417 188.688 273.969 188.688C279.585 188.688 283.857 190.536 286.785 194.232V189.264H297.441ZM276.201 216.912C279.177 216.912 281.601 216.048 283.473 214.32C285.393 212.544 286.353 210.24 286.353 207.408C286.353 204.576 285.393 202.296 283.473 200.568C281.601 198.792 279.177 197.904 276.201 197.904C273.225 197.904 270.777 198.792 268.857 200.568C266.937 202.296 265.977 204.576 265.977 207.408C265.977 210.24 266.937 212.544 268.857 214.32C270.777 216.048 273.225 216.912 276.201 216.912Z" fill="#1A2263"/>
<path d="M40.168 129.2H16.768L12.304 140H0.352L22.816 89.6H34.336L56.872 140H44.632L40.168 129.2ZM36.496 120.344L28.504 101.048L20.512 120.344H36.496ZM84.205 100.688C87.805 100.688 91.069 101.528 93.997 103.208C96.973 104.84 99.301 107.168 100.981 110.192C102.661 113.168 103.501 116.648 103.501 120.632C103.501 124.616 102.661 128.12 100.981 131.144C99.301 134.12 96.973 136.448 93.997 138.128C91.069 139.76 87.805 140.576 84.205 140.576C78.877 140.576 74.821 138.896 72.037 135.536V140H61.309V86.576H72.541V105.368C75.373 102.248 79.261 100.688 84.205 100.688ZM82.261 131.36C85.141 131.36 87.493 130.4 89.317 128.48C91.189 126.512 92.125 123.896 92.125 120.632C92.125 117.368 91.189 114.776 89.317 112.856C87.493 110.888 85.141 109.904 82.261 109.904C79.381 109.904 77.005 110.888 75.133 112.856C73.309 114.776 72.397 117.368 72.397 120.632C72.397 123.896 73.309 126.512 75.133 128.48C77.005 130.4 79.381 131.36 82.261 131.36ZM129.452 140.576C125.372 140.576 121.7 139.736 118.436 138.056C115.22 136.328 112.7 133.952 110.876 130.928C109.052 127.904 108.14 124.472 108.14 120.632C108.14 116.792 109.052 113.36 110.876 110.336C112.7 107.312 115.22 104.96 118.436 103.28C121.7 101.552 125.372 100.688 129.452 100.688C133.532 100.688 137.18 101.552 140.396 103.28C143.612 104.96 146.132 107.312 147.956 110.336C149.78 113.36 150.692 116.792 150.692 120.632C150.692 124.472 149.78 127.904 147.956 130.928C146.132 133.952 143.612 136.328 140.396 138.056C137.18 139.736 133.532 140.576 129.452 140.576ZM129.452 131.36C132.332 131.36 134.684 130.4 136.508 128.48C138.38 126.512 139.316 123.896 139.316 120.632C139.316 117.368 138.38 114.776 136.508 112.856C134.684 110.888 132.332 109.904 129.452 109.904C126.572 109.904 124.196 110.888 122.324 112.856C120.452 114.776 119.516 117.368 119.516 120.632C119.516 123.896 120.452 126.512 122.324 128.48C124.196 130.4 126.572 131.36 129.452 131.36ZM197.224 101.264V140H186.568V135.392C185.08 137.072 183.304 138.368 181.24 139.28C179.176 140.144 176.944 140.576 174.544 140.576C169.456 140.576 165.424 139.112 162.448 136.184C159.472 133.256 157.984 128.912 157.984 123.152V101.264H169.216V121.496C169.216 127.736 171.832 130.856 177.064 130.856C179.752 130.856 181.912 129.992 183.544 128.264C185.176 126.488 185.992 123.872 185.992 120.416V101.264H197.224ZM232.613 138.128C231.509 138.944 230.141 139.568 228.509 140C226.925 140.384 225.245 140.576 223.469 140.576C218.861 140.576 215.285 139.4 212.741 137.048C210.245 134.696 208.997 131.24 208.997 126.68V110.768H203.021V102.128H208.997V92.696H220.229V102.128H229.877V110.768H220.229V126.536C220.229 128.168 220.637 129.44 221.453 130.352C222.317 131.216 223.517 131.648 225.053 131.648C226.829 131.648 228.341 131.168 229.589 130.208L232.613 138.128Z" fill="#FF0000"/>
</svg>
