<svg width="90" height="36" viewBox="0 0 107 41" fill="none" xmlns="http://www.w3.org/2000/svg">
<path d="M10.5145 24.1974C10.5818 24.0304 10.8182 24.0304 10.8855 24.1974L13.0518 29.5758C13.0823 29.6515 13.1558 29.7011 13.2374 29.7011H20.1395C20.3435 29.7011 20.4166 29.9705 20.2407 30.0736L14.7358 33.3C14.6503 33.3501 14.6144 33.4553 14.6515 33.5472L16.7704 38.8079C16.8416 38.9848 16.6483 39.1516 16.4837 39.0552L10.8011 35.7246C10.7387 35.688 10.6613 35.688 10.5989 35.7246L4.9163 39.0552C4.75172 39.1516 4.55838 38.9848 4.62965 38.8079L6.74854 33.5472C6.78557 33.4553 6.74967 33.3501 6.66415 33.3L1.15934 30.0736C0.983402 29.9705 1.05654 29.7011 1.26047 29.7011H8.16264C8.24425 29.7011 8.31767 29.6515 8.34816 29.5758L10.5145 24.1974Z" fill="#C4C4C4"/>
<path d="M10.5145 24.1974C10.5818 24.0304 10.8182 24.0304 10.8855 24.1974L13.0518 29.5758C13.0823 29.6515 13.1558 29.7011 13.2374 29.7011H20.1395C20.3435 29.7011 20.4166 29.9705 20.2407 30.0736L14.7358 33.3C14.6503 33.3501 14.6144 33.4553 14.6515 33.5472L16.7704 38.8079C16.8416 38.9848 16.6483 39.1516 16.4837 39.0552L10.8011 35.7246C10.7387 35.688 10.6613 35.688 10.5989 35.7246L4.9163 39.0552C4.75172 39.1516 4.55838 38.9848 4.62965 38.8079L6.74854 33.5472C6.78557 33.4553 6.74967 33.3501 6.66415 33.3L1.15934 30.0736C0.983402 29.9705 1.05654 29.7011 1.26047 29.7011H8.16264C8.24425 29.7011 8.31767 29.6515 8.34816 29.5758L10.5145 24.1974Z" fill="#F8F268"/>
<path fill-rule="evenodd" clip-rule="evenodd" d="M10.7002 24.6446C10.6072 24.5459 10.4307 24.5657 10.3713 24.704L8.20479 29.7467C8.17324 29.8202 8.10097 29.8678 8.02103 29.8678H1.15809C0.951217 29.8678 0.880471 30.1435 1.06178 30.2431L6.50897 33.2361C6.59922 33.2857 6.63707 33.3957 6.59642 33.4903L4.49531 38.3808C4.4202 38.5556 4.60861 38.7267 4.77538 38.635L10.4588 35.5122C10.5188 35.4793 10.5914 35.4793 10.6514 35.5122L10.7002 35.539V24.6446Z" fill="#F8F268"/>
<path d="M31.9144 24.1974C31.9817 24.0304 32.2181 24.0304 32.2854 24.1974L34.4517 29.5758C34.4822 29.6515 34.5557 29.7011 34.6373 29.7011H41.5394C41.7434 29.7011 41.8165 29.9705 41.6406 30.0736L36.1357 33.3C36.0502 33.3501 36.0143 33.4553 36.0514 33.5472L38.1703 38.8079C38.2415 38.9848 38.0482 39.1516 37.8836 39.0552L32.201 35.7246C32.1386 35.688 32.0612 35.688 31.9988 35.7246L26.3162 39.0552C26.1516 39.1516 25.9583 38.9848 26.0296 38.8079L28.1484 33.5472C28.1855 33.4553 28.1496 33.3501 28.0641 33.3L22.5592 30.0736C22.3833 29.9705 22.4564 29.7011 22.6604 29.7011H29.5625C29.6442 29.7011 29.7176 29.6515 29.7481 29.5758L31.9144 24.1974Z" fill="#C4C4C4"/>
<path d="M31.9144 24.1974C31.9817 24.0304 32.2181 24.0304 32.2854 24.1974L34.4517 29.5758C34.4822 29.6515 34.5557 29.7011 34.6373 29.7011H41.5394C41.7434 29.7011 41.8165 29.9705 41.6406 30.0736L36.1357 33.3C36.0502 33.3501 36.0143 33.4553 36.0514 33.5472L38.1703 38.8079C38.2415 38.9848 38.0482 39.1516 37.8836 39.0552L32.201 35.7246C32.1386 35.688 32.0612 35.688 31.9988 35.7246L26.3162 39.0552C26.1516 39.1516 25.9583 38.9848 26.0296 38.8079L28.1484 33.5472C28.1855 33.4553 28.1496 33.3501 28.0641 33.3L22.5592 30.0736C22.3833 29.9705 22.4564 29.7011 22.6604 29.7011H29.5625C29.6442 29.7011 29.7176 29.6515 29.7481 29.5758L31.9144 24.1974Z" fill="#F8F268"/>
<path fill-rule="evenodd" clip-rule="evenodd" d="M32.1001 24.6446C32.0071 24.5459 31.8306 24.5657 31.7712 24.704L29.6047 29.7467C29.5731 29.8202 29.5009 29.8678 29.4209 29.8678H22.558C22.3511 29.8678 22.2804 30.1435 22.4617 30.2431L27.9089 33.2361C27.9991 33.2857 28.037 33.3957 27.9963 33.4903L25.8952 38.3808C25.8201 38.5556 26.0085 38.7267 26.1753 38.635L31.8587 35.5122C31.9187 35.4793 31.9913 35.4793 32.0513 35.5122L32.1001 35.539V24.6446Z" fill="#F8F268"/>
<path d="M53.3145 24.1974C53.3818 24.0304 53.6183 24.0304 53.6856 24.1974L55.8519 29.5758C55.8824 29.6515 55.9558 29.7011 56.0374 29.7011H62.9396C63.1435 29.7011 63.2167 29.9705 63.0407 30.0736L57.5359 33.3C57.4504 33.3501 57.4145 33.4553 57.4515 33.5472L59.5704 38.8079C59.6417 38.9848 59.4483 39.1516 59.2838 39.0552L53.6012 35.7246C53.5387 35.688 53.4614 35.688 53.3989 35.7246L47.7163 39.0552C47.5518 39.1516 47.3584 38.9848 47.4297 38.8079L49.5486 33.5472C49.5856 33.4553 49.5497 33.3501 49.4642 33.3L43.9594 30.0736C43.7835 29.9705 43.8566 29.7011 44.0605 29.7011H50.9627C51.0443 29.7011 51.1177 29.6515 51.1482 29.5758L53.3145 24.1974Z" fill="#C4C4C4"/>
<path d="M53.3145 24.1974C53.3818 24.0304 53.6183 24.0304 53.6856 24.1974L55.8519 29.5758C55.8824 29.6515 55.9558 29.7011 56.0374 29.7011H62.9396C63.1435 29.7011 63.2167 29.9705 63.0407 30.0736L57.5359 33.3C57.4504 33.3501 57.4145 33.4553 57.4515 33.5472L59.5704 38.8079C59.6417 38.9848 59.4483 39.1516 59.2838 39.0552L53.6012 35.7246C53.5387 35.688 53.4614 35.688 53.3989 35.7246L47.7163 39.0552C47.5518 39.1516 47.3584 38.9848 47.4297 38.8079L49.5486 33.5472C49.5856 33.4553 49.5497 33.3501 49.4642 33.3L43.9594 30.0736C43.7835 29.9705 43.8566 29.7011 44.0605 29.7011H50.9627C51.0443 29.7011 51.1177 29.6515 51.1482 29.5758L53.3145 24.1974Z" fill="#F8F268"/>
<path fill-rule="evenodd" clip-rule="evenodd" d="M53.5002 24.6446C53.4073 24.5459 53.2308 24.5657 53.1714 24.704L51.0048 29.7467C50.9733 29.8202 50.901 29.8678 50.8211 29.8678H43.9581C43.7513 29.8678 43.6805 30.1435 43.8618 30.2431L49.309 33.2361C49.3993 33.2857 49.4371 33.3957 49.3965 33.4903L47.2954 38.3808C47.2202 38.5556 47.4087 38.7267 47.5754 38.635L53.2588 35.5122C53.3188 35.4793 53.3915 35.4793 53.4514 35.5122L53.5002 35.539V24.6446Z" fill="#F8F268"/>
<path d="M74.7144 24.1974C74.7817 24.0304 75.0182 24.0304 75.0855 24.1974L77.2518 29.5758C77.2823 29.6515 77.3557 29.7011 77.4373 29.7011H84.3395C84.5434 29.7011 84.6165 29.9705 84.4406 30.0736L78.9358 33.3C78.8503 33.3501 78.8144 33.4553 78.8514 33.5472L80.9703 38.8079C81.0416 38.9848 80.8482 39.1516 80.6836 39.0552L75.0011 35.7246C74.9386 35.688 74.8613 35.688 74.7988 35.7246L69.1162 39.0552C68.9517 39.1516 68.7583 38.9848 68.8296 38.8079L70.9485 33.5472C70.9855 33.4553 70.9496 33.3501 70.8641 33.3L65.3593 30.0736C65.1834 29.9705 65.2565 29.7011 65.4604 29.7011H72.3626C72.4442 29.7011 72.5176 29.6515 72.5481 29.5758L74.7144 24.1974Z" fill="#C4C4C4"/>
<path d="M74.7144 24.1974C74.7817 24.0304 75.0182 24.0304 75.0855 24.1974L77.2518 29.5758C77.2823 29.6515 77.3557 29.7011 77.4373 29.7011H84.3395C84.5434 29.7011 84.6165 29.9705 84.4406 30.0736L78.9358 33.3C78.8503 33.3501 78.8144 33.4553 78.8514 33.5472L80.9703 38.8079C81.0416 38.9848 80.8482 39.1516 80.6836 39.0552L75.0011 35.7246C74.9386 35.688 74.8613 35.688 74.7988 35.7246L69.1162 39.0552C68.9517 39.1516 68.7583 38.9848 68.8296 38.8079L70.9485 33.5472C70.9855 33.4553 70.9496 33.3501 70.8641 33.3L65.3593 30.0736C65.1834 29.9705 65.2565 29.7011 65.4604 29.7011H72.3626C72.4442 29.7011 72.5176 29.6515 72.5481 29.5758L74.7144 24.1974Z" fill="#F8F268"/>
<path fill-rule="evenodd" clip-rule="evenodd" d="M74.9002 24.6446C74.8072 24.5459 74.6307 24.5657 74.5713 24.704L72.4047 29.7467C72.3732 29.8202 72.3009 29.8678 72.221 29.8678H65.358C65.1512 29.8678 65.0804 30.1435 65.2617 30.2431L70.7089 33.2361C70.7992 33.2857 70.837 33.3957 70.7964 33.4903L68.6953 38.3808C68.6201 38.5556 68.8086 38.7267 68.9753 38.635L74.6587 35.5122C74.7187 35.4793 74.7914 35.4793 74.8513 35.5122L74.9002 35.539V24.6446Z" fill="#F8F268"/>
<path d="M96.1146 24.1974C96.1819 24.0304 96.4183 24.0304 96.4856 24.1974L98.6519 29.5758C98.6824 29.6515 98.7558 29.7011 98.8375 29.7011H105.74C105.944 29.7011 106.017 29.9705 105.841 30.0736L100.336 33.3C100.25 33.3501 100.215 33.4553 100.252 33.5472L102.37 38.8079C102.442 38.9848 102.248 39.1516 102.084 39.0552L96.4012 35.7246C96.3388 35.688 96.2614 35.688 96.199 35.7246L90.5164 39.0552C90.3518 39.1516 90.1585 38.9848 90.2297 38.8079L92.3486 33.5472C92.3857 33.4553 92.3498 33.3501 92.2642 33.3L86.7594 30.0736C86.5835 29.9705 86.6566 29.7011 86.8606 29.7011H93.7627C93.8443 29.7011 93.9178 29.6515 93.9483 29.5758L96.1146 24.1974Z" fill="#C4C4C4"/>
<path d="M2.04 18V0.959999H9.336C10.088 0.959999 10.776 1.12 11.4 1.44C12.024 1.744 12.568 2.16 13.032 2.688C13.496 3.2 13.856 3.784 14.112 4.44C14.368 5.08 14.496 5.736 14.496 6.408C14.496 7.192 14.344 7.936 14.04 8.64C13.752 9.344 13.336 9.944 12.792 10.44C12.264 10.936 11.64 11.28 10.92 11.472L15.048 18H12.6L8.712 11.88H4.2V18H2.04ZM4.2 9.96H9.36C9.952 9.96 10.464 9.8 10.896 9.48C11.344 9.144 11.688 8.704 11.928 8.16C12.184 7.616 12.312 7.032 12.312 6.408C12.312 5.768 12.168 5.184 11.88 4.656C11.592 4.112 11.216 3.68 10.752 3.36C10.288 3.04 9.776 2.88 9.216 2.88H4.2V9.96ZM16.3059 14.376C16.3059 13.576 16.5299 12.888 16.9779 12.312C17.4419 11.72 18.0739 11.264 18.8739 10.944C19.6739 10.624 20.6019 10.464 21.6579 10.464C22.2179 10.464 22.8099 10.512 23.4339 10.608C24.0579 10.688 24.6099 10.816 25.0899 10.992V10.08C25.0899 9.12 24.8019 8.368 24.2259 7.824C23.6499 7.264 22.8339 6.984 21.7779 6.984C21.0899 6.984 20.4259 7.112 19.7859 7.368C19.1619 7.608 18.4979 7.96 17.7939 8.424L17.0259 6.936C17.8419 6.376 18.6579 5.96 19.4739 5.688C20.2899 5.4 21.1379 5.256 22.0179 5.256C23.6179 5.256 24.8819 5.704 25.8099 6.6C26.7379 7.48 27.2019 8.712 27.2019 10.296V15.6C27.2019 16.096 27.4259 16.352 27.8739 16.368V18C27.6659 18.032 27.4819 18.056 27.3219 18.072C27.1779 18.088 27.0579 18.096 26.9619 18.096C26.4659 18.096 26.0899 17.96 25.8339 17.688C25.5939 17.416 25.4579 17.128 25.4259 16.824L25.3779 16.032C24.8339 16.736 24.1219 17.28 23.2419 17.664C22.3619 18.048 21.4899 18.24 20.6259 18.24C19.7939 18.24 19.0499 18.072 18.3939 17.736C17.7379 17.384 17.2259 16.92 16.8579 16.344C16.4899 15.752 16.3059 15.096 16.3059 14.376ZM24.4659 15.264C24.6579 15.04 24.8099 14.816 24.9219 14.592C25.0339 14.352 25.0899 14.152 25.0899 13.992V12.432C24.0659 12.032 23.0099 11.832 21.9219 11.832C20.8499 11.832 19.9779 12.048 19.3059 12.48C18.6499 12.896 18.3219 13.472 18.3219 14.208C18.3219 14.608 18.4259 15 18.6339 15.384C18.8579 15.752 19.1779 16.056 19.5939 16.296C20.0259 16.536 20.5539 16.656 21.1779 16.656C21.8339 16.656 22.4579 16.528 23.0499 16.272C23.6419 16 24.1139 15.664 24.4659 15.264ZM36.9653 17.376C36.7093 17.488 36.3013 17.648 35.7413 17.856C35.1973 18.064 34.5893 18.168 33.9173 18.168C33.1493 18.168 32.4853 17.96 31.9253 17.544C31.3653 17.112 31.0853 16.448 31.0853 15.552V7.128H29.3813V5.472H31.0853V1.296H33.1973V5.472H36.0053V7.128H33.1973V14.904C33.2293 15.352 33.3813 15.688 33.6533 15.912C33.9253 16.12 34.2453 16.224 34.6133 16.224C35.0293 16.224 35.4133 16.152 35.7653 16.008C36.1173 15.864 36.3493 15.76 36.4613 15.696L36.9653 17.376ZM38.9228 3.12V0.48H41.0348V3.12H38.9228ZM38.9228 18V5.472H41.0348V18H38.9228ZM55.326 18H53.214V10.992C53.214 9.664 53.006 8.696 52.59 8.088C52.19 7.464 51.574 7.152 50.742 7.152C50.166 7.152 49.59 7.296 49.014 7.584C48.454 7.872 47.95 8.264 47.502 8.76C47.07 9.24 46.758 9.8 46.566 10.44V18H44.454V5.472H46.374V8.16C46.87 7.28 47.582 6.576 48.51 6.048C49.454 5.52 50.478 5.256 51.582 5.256C52.558 5.256 53.31 5.488 53.838 5.952C54.382 6.4 54.766 7.024 54.99 7.824C55.214 8.608 55.326 9.504 55.326 10.512V18ZM63.6023 18.144C62.4663 18.144 61.4583 17.848 60.5783 17.256C59.7143 16.648 59.0343 15.856 58.5383 14.88C58.0583 13.904 57.8183 12.864 57.8183 11.76C57.8183 10.576 58.0583 9.496 58.5383 8.52C59.0343 7.528 59.7223 6.736 60.6023 6.144C61.4823 5.552 62.4903 5.256 63.6263 5.256C64.6663 5.256 65.5703 5.512 66.3383 6.024C67.1223 6.536 67.7783 7.184 68.3063 7.968V5.472H70.1783V17.856C70.1783 19.04 69.8903 20.04 69.3143 20.856C68.7543 21.672 67.9863 22.288 67.0103 22.704C66.0503 23.136 64.9783 23.352 63.7943 23.352C62.3863 23.352 61.2343 23.104 60.3383 22.608C59.4423 22.112 58.6983 21.44 58.1063 20.592L59.3303 19.512C59.8263 20.248 60.4663 20.8 61.2503 21.168C62.0503 21.536 62.8983 21.72 63.7943 21.72C64.5623 21.72 65.2663 21.576 65.9063 21.288C66.5623 21.016 67.0823 20.592 67.4663 20.016C67.8663 19.44 68.0663 18.72 68.0663 17.856V15.648C67.6023 16.416 66.9623 17.024 66.1463 17.472C65.3463 17.92 64.4983 18.144 63.6023 18.144ZM64.2503 16.416C64.8423 16.416 65.4103 16.28 65.9543 16.008C66.4983 15.736 66.9543 15.384 67.3223 14.952C67.7063 14.52 67.9543 14.072 68.0663 13.608V10.008C67.7303 9.16 67.1863 8.464 66.4343 7.92C65.6823 7.36 64.8903 7.08 64.0583 7.08C63.2103 7.08 62.4743 7.312 61.8503 7.776C61.2423 8.24 60.7703 8.832 60.4342 9.552C60.1143 10.272 59.9543 11.024 59.9543 11.808C59.9543 12.64 60.1463 13.408 60.5303 14.112C60.9143 14.8 61.4263 15.36 62.0663 15.792C62.7223 16.208 63.4503 16.416 64.2503 16.416ZM77.8828 18.24C76.8428 18.24 75.8668 18.072 74.9548 17.736C74.0428 17.384 73.2588 16.864 72.6028 16.176L73.4188 14.688C74.1388 15.36 74.8588 15.84 75.5788 16.128C76.2988 16.416 77.0348 16.56 77.7868 16.56C78.6508 16.56 79.3548 16.4 79.8988 16.08C80.4428 15.744 80.7148 15.256 80.7148 14.616C80.7148 14.152 80.5708 13.808 80.2828 13.584C80.0108 13.36 79.6188 13.176 79.1068 13.032C78.5948 12.872 77.9868 12.696 77.2828 12.504C75.9868 12.136 74.9948 11.704 74.3068 11.208C73.6348 10.696 73.2988 9.952 73.2988 8.976C73.2988 7.792 73.7468 6.88 74.6428 6.24C75.5548 5.584 76.7148 5.256 78.1228 5.256C80.0108 5.256 81.4988 5.824 82.5868 6.96L81.6268 8.424C80.6508 7.416 79.4428 6.912 78.0028 6.912C77.5708 6.912 77.1468 6.968 76.7308 7.08C76.3148 7.176 75.9708 7.36 75.6988 7.632C75.4268 7.888 75.2908 8.256 75.2908 8.736C75.2908 9.328 75.5308 9.752 76.0108 10.008C76.4908 10.264 77.1948 10.528 78.1228 10.8C79.0668 11.072 79.8828 11.344 80.5708 11.616C81.2748 11.888 81.8188 12.24 82.2028 12.672C82.5868 13.104 82.7788 13.704 82.7788 14.472C82.7788 15.656 82.3308 16.584 81.4348 17.256C80.5388 17.912 79.3548 18.24 77.8828 18.24Z" fill="black" fill-opacity="0.8"/>
</svg>
