<svg width="27" height="27" viewBox="0 0 27 27" fill="none" xmlns="http://www.w3.org/2000/svg">
<path d="M26.4553 25.012L18.9511 17.5076C20.4047 15.7121 21.2799 13.4306 21.2799 10.9456C21.2799 5.18624 16.5937 0.5 10.8344 0.5C5.07506 0.5 0.388916 5.18619 0.388916 10.9456C0.388916 16.7049 5.07511 21.3912 10.8344 21.3912C13.3193 21.3912 15.6009 20.516 17.3964 19.0624L24.9006 26.5667C25.115 26.7811 25.3965 26.8889 25.678 26.8889C25.9595 26.8889 26.241 26.7811 26.4554 26.5667C26.8853 26.1368 26.8853 25.4419 26.4553 25.012ZM10.8344 19.1921C6.28677 19.1921 2.58798 15.4933 2.58798 10.9456C2.58798 6.39787 6.28677 2.69904 10.8344 2.69904C15.3821 2.69904 19.0809 6.39787 19.0809 10.9456C19.0809 15.4933 15.382 19.1921 10.8344 19.1921Z" fill="#1A2263"/>
</svg>
