<svg width="17" height="18" viewBox="0 0 17 18" fill="none" xmlns="http://www.w3.org/2000/svg">
<g clip-path="url(#clip0)">
<path d="M15.7934 8.20338L15.3627 6.50753C15.4804 6.48291 15.5688 6.38008 15.5688 6.25687V5.98345C15.5688 5.38978 15.0781 4.90682 14.4749 4.90682H12.5128V4.34283C12.5128 4.05069 12.2714 3.81305 11.9746 3.81305H1.97313C1.67632 3.81305 1.43486 4.05069 1.43486 4.34283V8.99117C1.43486 9.13273 1.55146 9.24752 1.69532 9.24752C1.83915 9.24752 1.95578 9.13276 1.95578 8.99117V4.34283C1.95578 4.33339 1.96355 4.32575 1.97313 4.32575H11.9745C11.9841 4.32575 11.9919 4.33339 11.9919 4.34283V8.99123C11.9919 9.13279 12.1085 9.24758 12.2524 9.24758C12.3962 9.24758 12.5128 9.13282 12.5128 8.99123V8.70064H15.5853C15.5855 8.70064 15.5857 8.7007 15.5859 8.7007C15.5862 8.7007 15.5864 8.70067 15.5867 8.70067C15.9647 8.70092 16.2857 8.94516 16.396 9.2817H15.5861C15.4423 9.2817 15.3257 9.39646 15.3257 9.53805V10.0849C15.3257 10.5278 15.6918 10.8881 16.1418 10.8881H16.437V12.016H15.7559C15.5322 11.3802 14.9181 10.9223 14.197 10.9223C13.4759 10.9223 12.8618 11.3802 12.6382 12.016H12.5128V10.0849C12.5128 9.94332 12.3961 9.82852 12.2523 9.82852C12.1085 9.82852 11.9918 9.94328 11.9918 10.0849V12.0159H6.58802C6.3643 11.3802 5.75022 10.9222 5.02913 10.9222C4.30804 10.9222 3.69394 11.3802 3.47025 12.0159H1.97313C1.96355 12.0159 1.95578 12.0083 1.95578 11.9989V11.4349H3.08442C3.22824 11.4349 3.34488 11.3201 3.34488 11.1785C3.34488 11.037 3.22828 10.9222 3.08442 10.9222H0.584072C0.440243 10.9222 0.323608 11.037 0.323608 11.1785C0.323608 11.3201 0.440211 11.4349 0.584072 11.4349H1.43489V11.9989C1.43489 12.291 1.67635 12.5286 1.97317 12.5286H3.38006C3.38 12.5343 3.37961 12.54 3.37961 12.5457C3.37961 13.4409 4.11961 14.1692 5.02913 14.1692C5.93866 14.1692 6.67866 13.4409 6.67866 12.5457C6.67866 12.54 6.67827 12.5343 6.6782 12.5286H12.548C12.5479 12.5343 12.5475 12.54 12.5475 12.5457C12.5475 13.4409 13.2875 14.1692 14.197 14.1692C15.1066 14.1692 15.8466 13.4409 15.8466 12.5457C15.8466 12.54 15.8462 12.5343 15.8461 12.5286H16.6974C16.8412 12.5286 16.9579 12.4139 16.9579 12.2723V9.53799C16.9579 8.86291 16.4518 8.30202 15.7934 8.20338ZM12.5128 5.41949H14.4749C14.7909 5.41949 15.0479 5.67248 15.0479 5.98345V6.00052H12.5128V5.41949ZM12.5128 8.18796V6.51319H14.8272L15.2526 8.18796H12.5128ZM5.02913 13.6566C4.40681 13.6566 3.9005 13.1583 3.9005 12.5458C3.9005 11.9332 4.40681 11.435 5.02913 11.435C5.65146 11.435 6.15777 11.9332 6.15777 12.5458C6.15777 13.1583 5.65146 13.6566 5.02913 13.6566ZM14.1971 13.6566C13.5748 13.6566 13.0685 13.1583 13.0685 12.5458C13.0685 11.9332 13.5748 11.435 14.1971 11.435C14.8194 11.435 15.3257 11.9332 15.3257 12.5458C15.3257 13.1583 14.8194 13.6566 14.1971 13.6566ZM16.437 10.3754H16.1418C15.9791 10.3754 15.8466 10.2451 15.8466 10.0849V9.79434H16.437V10.3754H16.437Z" fill="black"/>
<path d="M5.02912 12.016C4.7323 12.016 4.49084 12.2536 4.49084 12.5458C4.49084 12.8379 4.7323 13.0755 5.02912 13.0755C5.32594 13.0755 5.5674 12.8379 5.5674 12.5458C5.5674 12.2536 5.32594 12.016 5.02912 12.016Z" fill="black"/>
<path d="M14.1971 12.016C13.9003 12.016 13.6588 12.2536 13.6588 12.5458C13.6588 12.8379 13.9003 13.0755 14.1971 13.0755C14.4939 13.0755 14.7354 12.8379 14.7354 12.5458C14.7354 12.2536 14.4939 12.016 14.1971 12.016Z" fill="black"/>
<path d="M11.1411 10.9222H7.25167C7.10785 10.9222 6.99121 11.037 6.99121 11.1786C6.99121 11.3202 7.10781 11.4349 7.25167 11.4349H11.1411C11.2849 11.4349 11.4016 11.3202 11.4016 11.1786C11.4016 11.037 11.285 10.9222 11.1411 10.9222Z" fill="black"/>
<path d="M4.47355 9.82855H1.13974C0.995907 9.82855 0.879272 9.94331 0.879272 10.0849C0.879272 10.2265 0.995875 10.3413 1.13974 10.3413H4.47355C4.61738 10.3413 4.73401 10.2265 4.73401 10.0849C4.73401 9.94331 4.61738 9.82855 4.47355 9.82855Z" fill="black"/>
<path d="M9.38057 6.34892C9.27888 6.24884 9.11393 6.24884 9.01224 6.34896L6.69604 8.62855L5.49113 7.44266C5.3894 7.34254 5.22449 7.34254 5.1228 7.44266C5.02108 7.54278 5.02108 7.70505 5.1228 7.80517L6.5119 9.17233C6.56274 9.22241 6.62941 9.24741 6.69604 9.24741C6.76268 9.24741 6.82938 9.22241 6.88019 9.17233L9.38054 6.71147C9.48226 6.61132 9.48226 6.44904 9.38057 6.34892Z" fill="black"/>
</g>
<defs>
<clipPath id="clip0">
<rect width="16.6343" height="16.3717" fill="white" transform="translate(0.323608 0.805298)"/>
</clipPath>
</defs>
</svg>
