<svg width="78" height="11" viewBox="0 0 78 11" fill="none" xmlns="http://www.w3.org/2000/svg">
<path d="M5.20747 1.26847C5.26849 1.08665 5.52565 1.08665 5.58668 1.26847L6.49037 3.96096C6.51771 4.04242 6.59404 4.09732 6.67997 4.09732H9.59022C9.78554 4.09732 9.86504 4.34854 9.70528 4.46091L7.36212 6.10897C7.28974 6.15988 7.25942 6.2523 7.28758 6.33619L8.1852 9.0106C8.24666 9.19373 8.03853 9.34895 7.88053 9.23783L5.51213 7.57201C5.44311 7.52346 5.35104 7.52346 5.28201 7.57201L2.91361 9.23783C2.75561 9.34895 2.54748 9.19373 2.60894 9.0106L3.50657 6.33619C3.53472 6.2523 3.5044 6.15988 3.43202 6.10897L1.08886 4.46091C0.929106 4.34854 1.00861 4.09732 1.20392 4.09732H4.11417C4.2001 4.09732 4.27643 4.04242 4.30378 3.96096L5.20747 1.26847Z" fill="#C4C4C4"/>
<path d="M5.20747 1.26847C5.26849 1.08665 5.52565 1.08665 5.58668 1.26847L6.49037 3.96096C6.51771 4.04242 6.59404 4.09732 6.67997 4.09732H9.59022C9.78554 4.09732 9.86504 4.34854 9.70528 4.46091L7.36212 6.10897C7.28974 6.15988 7.25942 6.2523 7.28758 6.33619L8.1852 9.0106C8.24666 9.19373 8.03853 9.34895 7.88053 9.23783L5.51213 7.57201C5.44311 7.52346 5.35104 7.52346 5.28201 7.57201L2.91361 9.23783C2.75561 9.34895 2.54748 9.19373 2.60894 9.0106L3.50657 6.33619C3.53472 6.2523 3.5044 6.15988 3.43202 6.10897L1.08886 4.46091C0.929106 4.34854 1.00861 4.09732 1.20392 4.09732H4.11417C4.2001 4.09732 4.27643 4.04242 4.30378 3.96096L5.20747 1.26847Z" fill="#F8F268"/>
<path fill-rule="evenodd" clip-rule="evenodd" d="M5.39706 1.41569C5.30078 1.38153 5.18109 1.4218 5.14002 1.53652L4.23672 4.05963C4.20825 4.13916 4.13289 4.19222 4.04842 4.19222H1.16979C0.971384 4.19222 0.894053 4.44997 1.05969 4.55919L3.35412 6.07211C3.4311 6.12287 3.4634 6.21968 3.43232 6.30649L2.54826 8.77588C2.48349 8.95678 2.68624 9.11603 2.84665 9.01026L5.21822 7.44647C5.27189 7.41108 5.33836 7.40413 5.39706 7.42562V1.41569Z" fill="#F8F268"/>
<path d="M15.3544 1.26847C15.4154 1.08665 15.6726 1.08665 15.7336 1.26847L16.6373 3.96096C16.6646 4.04242 16.7409 4.09732 16.8269 4.09732H19.7371C19.9324 4.09732 20.0119 4.34854 19.8522 4.46091L17.509 6.10897C17.4367 6.15988 17.4063 6.2523 17.4345 6.33619L18.3321 9.0106C18.3936 9.19373 18.1854 9.34895 18.0274 9.23783L15.659 7.57201C15.59 7.52346 15.4979 7.52346 15.4289 7.57201L13.0605 9.23783C12.9025 9.34895 12.6944 9.19373 12.7559 9.0106L13.6535 6.33619C13.6816 6.2523 13.6513 6.15988 13.5789 6.10897L11.2358 4.46091C11.076 4.34854 11.1555 4.09732 11.3508 4.09732H14.2611C14.347 4.09732 14.4233 4.04242 14.4507 3.96096L15.3544 1.26847Z" fill="#C4C4C4"/>
<path d="M15.3544 1.26847C15.4154 1.08665 15.6726 1.08665 15.7336 1.26847L16.6373 3.96096C16.6646 4.04242 16.7409 4.09732 16.8269 4.09732H19.7371C19.9324 4.09732 20.0119 4.34854 19.8522 4.46091L17.509 6.10897C17.4367 6.15988 17.4063 6.2523 17.4345 6.33619L18.3321 9.0106C18.3936 9.19373 18.1854 9.34895 18.0274 9.23783L15.659 7.57201C15.59 7.52346 15.4979 7.52346 15.4289 7.57201L13.0605 9.23783C12.9025 9.34895 12.6944 9.19373 12.7559 9.0106L13.6535 6.33619C13.6816 6.2523 13.6513 6.15988 13.5789 6.10897L11.2358 4.46091C11.076 4.34854 11.1555 4.09732 11.3508 4.09732H14.2611C14.347 4.09732 14.4233 4.04242 14.4507 3.96096L15.3544 1.26847Z" fill="#F8F268"/>
<path fill-rule="evenodd" clip-rule="evenodd" d="M15.544 1.41569C15.4477 1.38153 15.328 1.4218 15.2869 1.53652L14.3836 4.05963C14.3552 4.13916 14.2798 4.19222 14.1953 4.19222H11.3167C11.1183 4.19222 11.041 4.44997 11.2066 4.55919L13.501 6.07211C13.578 6.12287 13.6103 6.21968 13.5792 6.30649L12.6952 8.77588C12.6304 8.95678 12.8331 9.11603 12.9936 9.01026L15.3651 7.44647C15.4188 7.41108 15.4853 7.40413 15.544 7.42562V1.41569Z" fill="#F8F268"/>
<path d="M25.5013 1.26847C25.5623 1.08665 25.8195 1.08665 25.8805 1.26847L26.7842 3.96096C26.8115 4.04242 26.8879 4.09732 26.9738 4.09732H29.884C30.0794 4.09732 30.1589 4.34854 29.9991 4.46091L27.6559 6.10897C27.5836 6.15988 27.5532 6.2523 27.5814 6.33619L28.479 9.0106C28.5405 9.19373 28.3324 9.34895 28.1744 9.23783L25.806 7.57201C25.7369 7.52346 25.6449 7.52346 25.5758 7.57201L23.2074 9.23783C23.0494 9.34895 22.8413 9.19373 22.9028 9.0106L23.8004 6.33619C23.8285 6.2523 23.7982 6.15988 23.7258 6.10897L21.3827 4.46091C21.2229 4.34854 21.3024 4.09732 21.4977 4.09732H24.408C24.4939 4.09732 24.5703 4.04242 24.5976 3.96096L25.5013 1.26847Z" fill="#C4C4C4"/>
<path d="M25.5013 1.26847C25.5623 1.08665 25.8195 1.08665 25.8805 1.26847L26.7842 3.96096C26.8115 4.04242 26.8879 4.09732 26.9738 4.09732H29.884C30.0794 4.09732 30.1589 4.34854 29.9991 4.46091L27.6559 6.10897C27.5836 6.15988 27.5532 6.2523 27.5814 6.33619L28.479 9.0106C28.5405 9.19373 28.3324 9.34895 28.1744 9.23783L25.806 7.57201C25.7369 7.52346 25.6449 7.52346 25.5758 7.57201L23.2074 9.23783C23.0494 9.34895 22.8413 9.19373 22.9028 9.0106L23.8004 6.33619C23.8285 6.2523 23.7982 6.15988 23.7258 6.10897L21.3827 4.46091C21.2229 4.34854 21.3024 4.09732 21.4977 4.09732H24.408C24.4939 4.09732 24.5703 4.04242 24.5976 3.96096L25.5013 1.26847Z" fill="#F8F268"/>
<path fill-rule="evenodd" clip-rule="evenodd" d="M25.6909 1.41569C25.5946 1.38153 25.4749 1.4218 25.4338 1.53652L24.5305 4.05963C24.5021 4.13916 24.4267 4.19222 24.3422 4.19222H21.4636C21.2652 4.19222 21.1879 4.44997 21.3535 4.55919L23.6479 6.07211C23.7249 6.12287 23.7572 6.21968 23.7261 6.30649L22.8421 8.77588C22.7773 8.95678 22.9801 9.11603 23.1405 9.01026L25.512 7.44647C25.5657 7.41108 25.6322 7.40413 25.6909 7.42562V1.41569Z" fill="#F8F268"/>
<path d="M35.6483 1.26847C35.7093 1.08665 35.9664 1.08665 36.0275 1.26847L36.9312 3.96096C36.9585 4.04242 37.0348 4.09732 37.1208 4.09732H40.031C40.2263 4.09732 40.3058 4.34854 40.1461 4.46091L37.8029 6.10897C37.7305 6.15988 37.7002 6.2523 37.7284 6.33619L38.626 9.0106C38.6875 9.19373 38.4793 9.34895 38.3213 9.23783L35.9529 7.57201C35.8839 7.52346 35.7918 7.52346 35.7228 7.57201L33.3544 9.23783C33.1964 9.34895 32.9883 9.19373 33.0497 9.0106L33.9474 6.33619C33.9755 6.2523 33.9452 6.15988 33.8728 6.10897L31.5297 4.46091C31.3699 4.34854 31.4494 4.09732 31.6447 4.09732H34.555C34.6409 4.09732 34.7172 4.04242 34.7446 3.96096L35.6483 1.26847Z" fill="#C4C4C4"/>
<path d="M35.6483 1.26847C35.7093 1.08665 35.9664 1.08665 36.0275 1.26847L36.9312 3.96096C36.9585 4.04242 37.0348 4.09732 37.1208 4.09732H40.031C40.2263 4.09732 40.3058 4.34854 40.1461 4.46091L37.8029 6.10897C37.7305 6.15988 37.7002 6.2523 37.7284 6.33619L38.626 9.0106C38.6875 9.19373 38.4793 9.34895 38.3213 9.23783L35.9529 7.57201C35.8839 7.52346 35.7918 7.52346 35.7228 7.57201L33.3544 9.23783C33.1964 9.34895 32.9883 9.19373 33.0497 9.0106L33.9474 6.33619C33.9755 6.2523 33.9452 6.15988 33.8728 6.10897L31.5297 4.46091C31.3699 4.34854 31.4494 4.09732 31.6447 4.09732H34.555C34.6409 4.09732 34.7172 4.04242 34.7446 3.96096L35.6483 1.26847Z" fill="#F8F268"/>
<path fill-rule="evenodd" clip-rule="evenodd" d="M35.8379 1.41569C35.7416 1.38153 35.6219 1.4218 35.5808 1.53652L34.6775 4.05963C34.649 4.13916 34.5737 4.19222 34.4892 4.19222H31.6106C31.4122 4.19222 31.3348 4.44997 31.5005 4.55919L33.7949 6.07211C33.8719 6.12287 33.9042 6.21968 33.8731 6.30649L32.9891 8.77588C32.9243 8.95678 33.127 9.11603 33.2874 9.01026L35.659 7.44647C35.7127 7.41108 35.7792 7.40413 35.8379 7.42562V1.41569Z" fill="#F8F268"/>
<path d="M45.7952 1.26847C45.8562 1.08665 46.1134 1.08665 46.1744 1.26847L47.0781 3.96096C47.1054 4.04242 47.1817 4.09732 47.2677 4.09732H50.1779C50.3732 4.09732 50.4527 4.34854 50.293 4.46091L47.9498 6.10897C47.8775 6.15988 47.8471 6.2523 47.8753 6.33619L48.7729 9.0106C48.8344 9.19373 48.6262 9.34895 48.4682 9.23783L46.0998 7.57201C46.0308 7.52346 45.9387 7.52346 45.8697 7.57201L43.5013 9.23783C43.3433 9.34895 43.1352 9.19373 43.1967 9.0106L44.0943 6.33619C44.1224 6.2523 44.0921 6.15988 44.0197 6.10897L41.6766 4.46091C41.5168 4.34854 41.5963 4.09732 41.7916 4.09732H44.7019C44.7878 4.09732 44.8641 4.04242 44.8915 3.96096L45.7952 1.26847Z" fill="#C4C4C4"/>
<path d="M56.555 6.1905V4.122C56.555 4.06133 56.5573 3.99483 56.562 3.9225C56.5667 3.85017 56.5737 3.77667 56.583 3.702L54.756 6.1905H56.555ZM57.8605 6.1905V6.5475C57.8605 6.58483 57.8488 6.61633 57.8255 6.642C57.8045 6.66767 57.7707 6.6805 57.724 6.6805H57.101V8H56.555V6.6805H54.329C54.2823 6.6805 54.2415 6.66767 54.2065 6.642C54.1738 6.614 54.1528 6.58017 54.1435 6.5405L54.0805 6.222L56.52 2.9845H57.101V6.1905H57.8605ZM58.449 7.615C58.449 7.55433 58.4595 7.49717 58.4805 7.4435C58.5039 7.38983 58.5342 7.34317 58.5715 7.3035C58.6112 7.26383 58.6579 7.23233 58.7115 7.209C58.7652 7.18567 58.8224 7.174 58.883 7.174C58.9437 7.174 59.0009 7.18567 59.0545 7.209C59.1082 7.23233 59.1549 7.26383 59.1945 7.3035C59.2342 7.34317 59.2657 7.38983 59.289 7.4435C59.3124 7.49717 59.324 7.55433 59.324 7.615C59.324 7.678 59.3124 7.73633 59.289 7.79C59.2657 7.84133 59.2342 7.88683 59.1945 7.9265C59.1549 7.96617 59.1082 7.9965 59.0545 8.0175C59.0009 8.04083 58.9437 8.0525 58.883 8.0525C58.8224 8.0525 58.7652 8.04083 58.7115 8.0175C58.6579 7.9965 58.6112 7.96617 58.5715 7.9265C58.5342 7.88683 58.5039 7.84133 58.4805 7.79C58.4595 7.73633 58.449 7.678 58.449 7.615ZM63.1693 7.4085C63.237 7.4085 63.2907 7.42833 63.3303 7.468C63.37 7.50767 63.3898 7.559 63.3898 7.622V8H60.0438V7.7865C60.0438 7.74217 60.0532 7.69667 60.0718 7.65C60.0905 7.60333 60.1197 7.56017 60.1593 7.5205L61.7658 5.907C61.8988 5.77167 62.0202 5.64217 62.1298 5.5185C62.2395 5.3925 62.3328 5.2665 62.4098 5.1405C62.4868 5.0145 62.5463 4.88733 62.5883 4.759C62.6303 4.62833 62.6513 4.4895 62.6513 4.3425C62.6513 4.1955 62.628 4.06717 62.5813 3.9575C62.5347 3.8455 62.4705 3.75333 62.3888 3.681C62.3095 3.60867 62.215 3.555 62.1053 3.52C61.9957 3.48267 61.8778 3.464 61.7518 3.464C61.6235 3.464 61.5057 3.48267 61.3983 3.52C61.291 3.55733 61.1953 3.60983 61.1113 3.6775C61.0297 3.74283 60.9608 3.821 60.9048 3.912C60.8488 4.003 60.8092 4.10333 60.7858 4.213C60.7578 4.29467 60.7193 4.3495 60.6703 4.3775C60.6237 4.40317 60.5572 4.41017 60.4708 4.3985L60.1453 4.3425C60.178 4.11383 60.241 3.912 60.3343 3.737C60.43 3.55967 60.549 3.4115 60.6913 3.2925C60.836 3.1735 61.0005 3.08367 61.1848 3.023C61.3692 2.96 61.5687 2.9285 61.7833 2.9285C61.9957 2.9285 62.194 2.96 62.3783 3.023C62.5627 3.086 62.7225 3.17817 62.8578 3.2995C62.9932 3.4185 63.0993 3.56433 63.1763 3.737C63.2533 3.90967 63.2918 4.10567 63.2918 4.325C63.2918 4.51167 63.2638 4.6855 63.2078 4.8465C63.1518 5.00517 63.076 5.15683 62.9803 5.3015C62.8847 5.44617 62.7738 5.58733 62.6478 5.725C62.5242 5.86267 62.3923 6.0015 62.2523 6.1415L60.9293 7.4925C61.0227 7.46683 61.1172 7.447 61.2128 7.433C61.3085 7.41667 61.4007 7.4085 61.4893 7.4085H63.1693ZM64.8954 2.8445V5.879H65.0564C65.1031 5.879 65.1416 5.87317 65.1719 5.8615C65.2046 5.8475 65.2384 5.82067 65.2734 5.781L66.3934 4.5805C66.4261 4.54083 66.4599 4.5105 66.4949 4.4895C66.5322 4.46617 66.5812 4.4545 66.6419 4.4545H67.2054L65.8999 5.844C65.8369 5.92333 65.7692 5.98517 65.6969 6.0295C65.7389 6.0575 65.7762 6.09017 65.8089 6.1275C65.8439 6.1625 65.8766 6.20333 65.9069 6.25L67.2929 8H66.7364C66.6827 8 66.6361 7.99183 66.5964 7.9755C66.5591 7.95683 66.5264 7.92417 66.4984 7.8775L65.3329 6.425C65.2979 6.376 65.2629 6.3445 65.2279 6.3305C65.1952 6.31417 65.1439 6.306 65.0739 6.306H64.8954V8H64.2689V2.8445H64.8954Z" fill="black" fill-opacity="0.53"/>
</svg>
