<svg width="216" height="51" viewBox="0 0 216 51" fill="none" xmlns="http://www.w3.org/2000/svg">
<rect x="20" y="29" width="196" height="22" fill="url(#paint0_linear)"/>
<path d="M22.068 31.868V35H3.78V9.8H21.564V12.932H7.38V20.672H20.016V23.732H7.38V31.868H22.068ZM27.3932 8.288H30.8492V35H27.3932V8.288ZM54.6919 25.568C54.6919 25.832 54.6679 26.18 54.6199 26.612H39.1399C39.3559 28.292 40.0879 29.648 41.3359 30.68C42.6079 31.688 44.1799 32.192 46.0519 32.192C48.3319 32.192 50.1679 31.424 51.5599 29.888L53.4679 32.12C52.6039 33.128 51.5239 33.896 50.2279 34.424C48.9559 34.952 47.5279 35.216 45.9439 35.216C43.9279 35.216 42.1399 34.808 40.5799 33.992C39.0199 33.152 37.8079 31.988 36.9439 30.5C36.1039 29.012 35.6839 27.332 35.6839 25.46C35.6839 23.612 36.0919 21.944 36.9079 20.456C37.7479 18.968 38.8879 17.816 40.3279 17C41.7919 16.16 43.4359 15.74 45.2599 15.74C47.0839 15.74 48.7039 16.16 50.1199 17C51.5599 17.816 52.6759 18.968 53.4679 20.456C54.2839 21.944 54.6919 23.648 54.6919 25.568ZM45.2599 18.656C43.6039 18.656 42.2119 19.16 41.0839 20.168C39.9799 21.176 39.3319 22.496 39.1399 24.128H51.3799C51.1879 22.52 50.5279 21.212 49.3999 20.204C48.2959 19.172 46.9159 18.656 45.2599 18.656ZM67.8068 35.216C65.8628 35.216 64.1228 34.796 62.5868 33.956C61.0748 33.116 59.8868 31.964 59.0228 30.5C58.1588 29.012 57.7268 27.332 57.7268 25.46C57.7268 23.588 58.1588 21.92 59.0228 20.456C59.8868 18.968 61.0748 17.816 62.5868 17C64.1228 16.16 65.8628 15.74 67.8068 15.74C69.5348 15.74 71.0708 16.088 72.4148 16.784C73.7828 17.48 74.8388 18.488 75.5828 19.808L72.9548 21.5C72.3548 20.588 71.6108 19.904 70.7228 19.448C69.8348 18.992 68.8508 18.764 67.7708 18.764C66.5228 18.764 65.3948 19.04 64.3868 19.592C63.4028 20.144 62.6228 20.936 62.0468 21.968C61.4948 22.976 61.2188 24.14 61.2188 25.46C61.2188 26.804 61.4948 27.992 62.0468 29.024C62.6228 30.032 63.4028 30.812 64.3868 31.364C65.3948 31.916 66.5228 32.192 67.7708 32.192C68.8508 32.192 69.8348 31.964 70.7228 31.508C71.6108 31.052 72.3548 30.368 72.9548 29.456L75.5828 31.112C74.8388 32.432 73.7828 33.452 72.4148 34.172C71.0708 34.868 69.5348 35.216 67.8068 35.216ZM91.0313 33.884C90.5273 34.316 89.9033 34.652 89.1593 34.892C88.4153 35.108 87.6473 35.216 86.8553 35.216C84.9353 35.216 83.4473 34.7 82.3913 33.668C81.3353 32.636 80.8073 31.16 80.8073 29.24V18.764H77.5673V15.92H80.8073V11.744H84.2633V15.92H89.7353V18.764H84.2633V29.096C84.2633 30.128 84.5153 30.92 85.0193 31.472C85.5473 32.024 86.2913 32.3 87.2513 32.3C88.3073 32.3 89.2073 32 89.9513 31.4L91.0313 33.884ZM98.5216 19.124C99.1216 18.02 100.01 17.18 101.186 16.604C102.362 16.028 103.79 15.74 105.47 15.74V19.088C105.278 19.064 105.014 19.052 104.678 19.052C102.806 19.052 101.33 19.616 100.25 20.744C99.1936 21.848 98.6656 23.432 98.6656 25.496V35H95.2096V15.92H98.5216V19.124ZM117.725 35.216C115.829 35.216 114.125 34.796 112.613 33.956C111.101 33.116 109.913 31.964 109.049 30.5C108.209 29.012 107.789 27.332 107.789 25.46C107.789 23.588 108.209 21.92 109.049 20.456C109.913 18.968 111.101 17.816 112.613 17C114.125 16.16 115.829 15.74 117.725 15.74C119.621 15.74 121.313 16.16 122.801 17C124.313 17.816 125.489 18.968 126.329 20.456C127.193 21.92 127.625 23.588 127.625 25.46C127.625 27.332 127.193 29.012 126.329 30.5C125.489 31.964 124.313 33.116 122.801 33.956C121.313 34.796 119.621 35.216 117.725 35.216ZM117.725 32.192C118.949 32.192 120.041 31.916 121.001 31.364C121.985 30.788 122.753 29.996 123.305 28.988C123.857 27.956 124.133 26.78 124.133 25.46C124.133 24.14 123.857 22.976 123.305 21.968C122.753 20.936 121.985 20.144 121.001 19.592C120.041 19.04 118.949 18.764 117.725 18.764C116.501 18.764 115.397 19.04 114.413 19.592C113.453 20.144 112.685 20.936 112.109 21.968C111.557 22.976 111.281 24.14 111.281 25.46C111.281 26.78 111.557 27.956 112.109 28.988C112.685 29.996 113.453 30.788 114.413 31.364C115.397 31.916 116.501 32.192 117.725 32.192ZM142.593 15.74C145.017 15.74 146.937 16.448 148.353 17.864C149.793 19.256 150.513 21.308 150.513 24.02V35H147.057V24.416C147.057 22.568 146.613 21.176 145.725 20.24C144.837 19.304 143.565 18.836 141.909 18.836C140.037 18.836 138.561 19.388 137.481 20.492C136.401 21.572 135.861 23.132 135.861 25.172V35H132.405V15.92H135.717V18.8C136.413 17.816 137.349 17.06 138.525 16.532C139.725 16.004 141.081 15.74 142.593 15.74ZM156.909 15.92H160.365V35H156.909V15.92ZM158.637 12.248C157.965 12.248 157.401 12.032 156.945 11.6C156.513 11.168 156.297 10.64 156.297 10.016C156.297 9.392 156.513 8.864 156.945 8.432C157.401 7.976 157.965 7.748 158.637 7.748C159.309 7.748 159.861 7.964 160.293 8.396C160.749 8.804 160.977 9.32 160.977 9.944C160.977 10.592 160.749 11.144 160.293 11.6C159.861 12.032 159.309 12.248 158.637 12.248ZM175.28 35.216C173.336 35.216 171.596 34.796 170.06 33.956C168.548 33.116 167.36 31.964 166.496 30.5C165.632 29.012 165.2 27.332 165.2 25.46C165.2 23.588 165.632 21.92 166.496 20.456C167.36 18.968 168.548 17.816 170.06 17C171.596 16.16 173.336 15.74 175.28 15.74C177.008 15.74 178.544 16.088 179.888 16.784C181.256 17.48 182.312 18.488 183.056 19.808L180.428 21.5C179.828 20.588 179.084 19.904 178.196 19.448C177.308 18.992 176.324 18.764 175.244 18.764C173.996 18.764 172.868 19.04 171.86 19.592C170.876 20.144 170.096 20.936 169.52 21.968C168.968 22.976 168.692 24.14 168.692 25.46C168.692 26.804 168.968 27.992 169.52 29.024C170.096 30.032 170.876 30.812 171.86 31.364C172.868 31.916 173.996 32.192 175.244 32.192C176.324 32.192 177.308 31.964 178.196 31.508C179.084 31.052 179.828 30.368 180.428 29.456L183.056 31.112C182.312 32.432 181.256 33.452 179.888 34.172C178.544 34.868 177.008 35.216 175.28 35.216ZM193.002 35.216C191.442 35.216 189.942 35.012 188.502 34.604C187.062 34.172 185.934 33.632 185.118 32.984L186.558 30.248C187.398 30.848 188.418 31.328 189.618 31.688C190.818 32.048 192.03 32.228 193.254 32.228C196.278 32.228 197.79 31.364 197.79 29.636C197.79 29.06 197.586 28.604 197.178 28.268C196.77 27.932 196.254 27.692 195.63 27.548C195.03 27.38 194.166 27.2 193.038 27.008C191.502 26.768 190.242 26.492 189.258 26.18C188.298 25.868 187.47 25.34 186.774 24.596C186.078 23.852 185.73 22.808 185.73 21.464C185.73 19.736 186.45 18.356 187.89 17.324C189.33 16.268 191.262 15.74 193.686 15.74C194.958 15.74 196.23 15.896 197.502 16.208C198.774 16.52 199.818 16.94 200.634 17.468L199.158 20.204C197.598 19.196 195.762 18.692 193.65 18.692C192.186 18.692 191.07 18.932 190.302 19.412C189.534 19.892 189.15 20.528 189.15 21.32C189.15 21.944 189.366 22.436 189.798 22.796C190.23 23.156 190.758 23.42 191.382 23.588C192.03 23.756 192.93 23.948 194.082 24.164C195.618 24.428 196.854 24.716 197.79 25.028C198.75 25.316 199.566 25.82 200.238 26.54C200.91 27.26 201.246 28.268 201.246 29.564C201.246 31.292 200.502 32.672 199.014 33.704C197.55 34.712 195.546 35.216 193.002 35.216Z" fill="#1A2263"/>
<defs>
<linearGradient id="paint0_linear" x1="20" y1="40.3793" x2="216" y2="40.3793" gradientUnits="userSpaceOnUse">
<stop stop-color="#DF6464"/>
<stop offset="1" stop-color="#76A0E6"/>
</linearGradient>
</defs>
</svg>
