<svg width="208" height="31" viewBox="0 0 208 31" fill="none" xmlns="http://www.w3.org/2000/svg">
<path d="M8 3.648H0.128V1.6H18.24V3.648H10.368V24H8V3.648ZM26.673 24.16C25.0517 24.16 23.5903 23.7973 22.289 23.072C20.9877 22.3253 19.9637 21.3013 19.217 20C18.4703 18.6987 18.097 17.2267 18.097 15.584C18.097 13.9413 18.4703 12.4693 19.217 11.168C19.9637 9.86667 20.9877 8.85333 22.289 8.128C23.5903 7.40267 25.0517 7.04 26.673 7.04C28.2943 7.04 29.7557 7.40267 31.057 8.128C32.3583 8.85333 33.3717 9.86667 34.097 11.168C34.8437 12.4693 35.217 13.9413 35.217 15.584C35.217 17.2267 34.8437 18.6987 34.097 20C33.3717 21.3013 32.3583 22.3253 31.057 23.072C29.7557 23.7973 28.2943 24.16 26.673 24.16ZM26.673 22.144C27.8677 22.144 28.9343 21.8773 29.873 21.344C30.833 20.7893 31.5797 20.0107 32.113 19.008C32.6463 18.0053 32.913 16.864 32.913 15.584C32.913 14.304 32.6463 13.1627 32.113 12.16C31.5797 11.1573 30.833 10.3893 29.873 9.856C28.9343 9.30133 27.8677 9.024 26.673 9.024C25.4783 9.024 24.401 9.30133 23.441 9.856C22.5023 10.3893 21.7557 11.1573 21.201 12.16C20.6677 13.1627 20.401 14.304 20.401 15.584C20.401 16.864 20.6677 18.0053 21.201 19.008C21.7557 20.0107 22.5023 20.7893 23.441 21.344C24.401 21.8773 25.4783 22.144 26.673 22.144ZM48.5275 7.04C50.1062 7.04 51.5355 7.40267 52.8155 8.128C54.0955 8.832 55.0982 9.83467 55.8235 11.136C56.5488 12.4373 56.9115 13.92 56.9115 15.584C56.9115 17.2693 56.5488 18.7627 55.8235 20.064C55.0982 21.3653 54.0955 22.3787 52.8155 23.104C51.5568 23.808 50.1275 24.16 48.5275 24.16C47.1622 24.16 45.9248 23.8827 44.8155 23.328C43.7275 22.752 42.8315 21.92 42.1275 20.832V30.208H39.8555V7.168H42.0315V10.496C42.7142 9.38667 43.6102 8.53333 44.7195 7.936C45.8502 7.33867 47.1195 7.04 48.5275 7.04ZM48.3675 22.144C49.5408 22.144 50.6075 21.8773 51.5675 21.344C52.5275 20.7893 53.2742 20.0107 53.8075 19.008C54.3622 18.0053 54.6395 16.864 54.6395 15.584C54.6395 14.304 54.3622 13.1733 53.8075 12.192C53.2742 11.1893 52.5275 10.4107 51.5675 9.856C50.6075 9.30133 49.5408 9.024 48.3675 9.024C47.1728 9.024 46.0955 9.30133 45.1355 9.856C44.1968 10.4107 43.4502 11.1893 42.8955 12.192C42.3622 13.1733 42.0955 14.304 42.0955 15.584C42.0955 16.864 42.3622 18.0053 42.8955 19.008C43.4502 20.0107 44.1968 20.7893 45.1355 21.344C46.0955 21.8773 47.1728 22.144 48.3675 22.144Z" fill="black"/>
<path d="M84.3655 24L80.0455 17.76H79.7895H75.2775V24H70.0935V1.6H79.7895C81.7735 1.6 83.4908 1.93067 84.9415 2.592C86.4135 3.25333 87.5442 4.192 88.3335 5.408C89.1228 6.624 89.5175 8.064 89.5175 9.728C89.5175 11.392 89.1122 12.832 88.3015 14.048C87.5122 15.2427 86.3815 16.16 84.9095 16.8L89.9335 24H84.3655ZM84.2695 9.728C84.2695 8.46933 83.8642 7.50933 83.0535 6.848C82.2428 6.16533 81.0588 5.824 79.5015 5.824H75.2775V13.632H79.5015C81.0588 13.632 82.2428 13.2907 83.0535 12.608C83.8642 11.9253 84.2695 10.9653 84.2695 9.728ZM110.137 15.456C110.137 15.52 110.105 15.968 110.041 16.8H97.0168C97.2514 17.8667 97.8061 18.7093 98.6808 19.328C99.5554 19.9467 100.643 20.256 101.945 20.256C102.841 20.256 103.63 20.128 104.313 19.872C105.017 19.5947 105.667 19.168 106.265 18.592L108.921 21.472C107.299 23.328 104.931 24.256 101.817 24.256C99.8754 24.256 98.1581 23.8827 96.6648 23.136C95.1714 22.368 94.0194 21.312 93.2088 19.968C92.3981 18.624 91.9928 17.0987 91.9928 15.392C91.9928 13.7067 92.3874 12.192 93.1768 10.848C93.9874 9.48267 95.0861 8.42667 96.4728 7.68C97.8808 6.912 99.4488 6.528 101.177 6.528C102.862 6.528 104.387 6.89067 105.753 7.616C107.118 8.34133 108.185 9.38667 108.953 10.752C109.742 12.096 110.137 13.664 110.137 15.456ZM101.209 10.304C100.078 10.304 99.1288 10.624 98.3608 11.264C97.5928 11.904 97.1234 12.7787 96.9528 13.888H105.433C105.262 12.8 104.793 11.936 104.025 11.296C103.257 10.6347 102.318 10.304 101.209 10.304ZM123.924 6.528C126.058 6.528 127.775 7.168 129.076 8.448C130.399 9.728 131.06 11.6267 131.06 14.144V24H126.068V14.912C126.068 13.5467 125.77 12.5333 125.172 11.872C124.575 11.1893 123.711 10.848 122.58 10.848C121.322 10.848 120.319 11.2427 119.572 12.032C118.826 12.8 118.452 13.952 118.452 15.488V24H113.46V6.784H118.228V8.8C118.89 8.07467 119.711 7.52 120.692 7.136C121.674 6.73067 122.751 6.528 123.924 6.528ZM146.689 23.168C146.199 23.5307 145.591 23.808 144.865 24C144.161 24.1707 143.415 24.256 142.625 24.256C140.577 24.256 138.988 23.7333 137.857 22.688C136.748 21.6427 136.193 20.1067 136.193 18.08V11.008H133.537V7.168H136.193V2.976H141.185V7.168H145.473V11.008H141.185V18.016C141.185 18.7413 141.367 19.3067 141.729 19.712C142.113 20.096 142.647 20.288 143.329 20.288C144.119 20.288 144.791 20.0747 145.345 19.648L146.689 23.168Z" fill="#1A2263"/>
<path d="M164.596 19.2H154.196L152.212 24H146.899L156.884 1.6H162.004L172.02 24H166.58L164.596 19.2ZM162.964 15.264L159.412 6.688L155.86 15.264H162.964ZM173.992 0.255999H178.984V24H173.992V0.255999ZM183.617 0.255999H188.609V24H183.617V0.255999ZM199.034 24.256C197.604 24.256 196.207 24.0853 194.842 23.744C193.476 23.3813 192.388 22.9333 191.578 22.4L193.242 18.816C194.01 19.3067 194.938 19.712 196.026 20.032C197.114 20.3307 198.18 20.48 199.226 20.48C201.338 20.48 202.394 19.9573 202.394 18.912C202.394 18.4213 202.106 18.0693 201.53 17.856C200.954 17.6427 200.068 17.4613 198.874 17.312C197.466 17.0987 196.303 16.8533 195.386 16.576C194.468 16.2987 193.668 15.808 192.986 15.104C192.324 14.4 191.993 13.3973 191.993 12.096C191.993 11.008 192.303 10.048 192.922 9.216C193.562 8.36267 194.479 7.70133 195.674 7.232C196.89 6.76267 198.319 6.528 199.962 6.528C201.178 6.528 202.383 6.66667 203.578 6.944C204.794 7.2 205.796 7.56267 206.586 8.032L204.922 11.584C203.407 10.7307 201.754 10.304 199.962 10.304C198.895 10.304 198.095 10.4533 197.562 10.752C197.028 11.0507 196.762 11.4347 196.762 11.904C196.762 12.4373 197.05 12.8107 197.626 13.024C198.202 13.2373 199.119 13.44 200.378 13.632C201.786 13.8667 202.938 14.1227 203.834 14.4C204.73 14.656 205.508 15.136 206.17 15.84C206.831 16.544 207.162 17.5253 207.162 18.784C207.162 19.8507 206.842 20.8 206.202 21.632C205.562 22.464 204.623 23.1147 203.386 23.584C202.17 24.032 200.719 24.256 199.034 24.256Z" fill="#FF0000"/>
</svg>
